<svg width="32" height="32" viewBox="0 0 32 32" fill="none" xmlns="http://www.w3.org/2000/svg">
<g clip-path="url(#clip0_122_30)">
<path d="M22.2424 3.53204V2.89204H25.2824V3.53204H24.3224V10.236C24.3224 11.004 24.2051 11.6654 23.9704 12.22C23.7464 12.7747 23.4318 13.2014 23.0264 13.5C22.2691 14.0547 21.3251 14.332 20.1944 14.332C19.0638 14.332 18.1091 14.0494 17.3304 13.484C16.9144 13.196 16.5891 12.7747 16.3544 12.22C16.1198 11.6654 16.0024 10.9987 16.0024 10.22V3.53204H15.0424V2.89204H19.3624V3.53204H18.4024V10.732C18.4024 11.564 18.6264 12.204 19.0744 12.652C19.5224 13.1 20.0718 13.324 20.7224 13.324C21.3838 13.324 21.9598 13.1 22.4504 12.652C22.9518 12.1934 23.2024 11.5534 23.2024 10.732V3.53204H22.2424ZM28.1495 4.28404C27.9042 4.02804 27.7815 3.72404 27.7815 3.37204C27.7815 3.02004 27.9042 2.72137 28.1495 2.47604C28.4055 2.22004 28.7095 2.09204 29.0615 2.09204C29.4135 2.09204 29.7122 2.22004 29.9575 2.47604C30.2135 2.72137 30.3415 3.02004 30.3415 3.37204C30.3415 3.72404 30.2135 4.02804 29.9575 4.28404C29.7122 4.52937 29.4135 4.65204 29.0615 4.65204C28.7095 4.65204 28.4055 4.52937 28.1495 4.28404ZM28.7575 5.85204C29.7602 5.85204 30.2615 6.28404 30.2615 7.14804V12.316C30.2615 12.604 30.3309 12.8334 30.4695 13.004C30.6082 13.164 30.8215 13.244 31.1095 13.244C31.3975 13.244 31.7282 13.0894 32.1015 12.78L32.3895 13.164C31.5362 13.9427 30.6829 14.332 29.8295 14.332C28.5175 14.332 27.8615 13.548 27.8615 11.98V6.62004C27.2749 6.76937 26.8269 7.03071 26.5175 7.40404L26.0855 6.90804C26.3949 6.58804 26.7842 6.33204 27.2535 6.14004C27.7335 5.94804 28.2349 5.85204 28.7575 5.85204Z" fill="#787878"/>
<path d="M6.8818 20.852V20.292H9.5418V20.852H8.7018V26.718C8.7018 27.39 8.59913 27.9687 8.3938 28.454C8.1978 28.9394 7.92246 29.3127 7.5678 29.574C6.90513 30.0594 6.07913 30.302 5.0898 30.302C4.10046 30.302 3.26513 30.0547 2.5838 29.56C2.2198 29.308 1.93513 28.9394 1.7298 28.454C1.52446 27.9687 1.4218 27.3854 1.4218 26.704L1.4218 20.852H0.581797V20.292H4.3618V20.852H3.5218V27.152C3.5218 27.88 3.7178 28.44 4.1098 28.832C4.5018 29.224 4.98246 29.42 5.5518 29.42C6.13046 29.42 6.63446 29.224 7.0638 28.832C7.50246 28.4307 7.7218 27.8707 7.7218 27.152L7.7218 20.852H6.8818ZM10.9585 29.994C10.7439 29.7794 10.6365 29.5227 10.6365 29.224C10.6365 28.9254 10.7392 28.6734 10.9445 28.468C11.1592 28.2534 11.4019 28.146 11.6725 28.146C11.9525 28.146 12.1859 28.2254 12.3725 28.384C12.5685 28.5334 12.6992 28.7247 12.7645 28.958C13.1659 28.566 13.4785 28.02 13.7025 27.32L12.3445 24.464C12.2232 24.2214 12.1159 24.058 12.0225 23.974C11.9385 23.8807 11.8172 23.834 11.6585 23.834C11.3412 23.834 11.0285 23.9694 10.7205 24.24L10.4545 23.904C11.1732 23.2227 11.9245 22.882 12.7085 22.882C13.4925 22.882 14.0432 23.218 14.3605 23.89L14.9625 25.164C15.2145 24.492 15.5412 23.946 15.9425 23.526C16.3439 23.0967 16.8012 22.882 17.3145 22.882C17.6132 22.882 17.8652 22.9894 18.0705 23.204C18.2852 23.4094 18.3925 23.6614 18.3925 23.96C18.3925 24.2587 18.2852 24.5154 18.0705 24.73C17.8652 24.9354 17.6225 25.038 17.3425 25.038C17.0625 25.038 16.8245 24.9634 16.6285 24.814C16.4419 24.6647 16.3205 24.4687 16.2645 24.226C15.8539 24.6274 15.5365 25.1827 15.3125 25.892L16.6705 28.72C16.7919 28.9627 16.8945 29.1307 16.9785 29.224C17.0719 29.308 17.1979 29.35 17.3565 29.35C17.6739 29.35 17.9865 29.2147 18.2945 28.944L18.5605 29.28C17.8419 29.9614 17.0905 30.302 16.3065 30.302C15.5225 30.302 14.9719 29.966 14.6545 29.294L14.0525 28.048C13.8005 28.72 13.4785 29.266 13.0865 29.686C12.6945 30.0967 12.2512 30.302 11.7565 30.302C11.4392 30.302 11.1732 30.1994 10.9585 29.994Z" fill="black"/>
<path d="M3.44 8.88V7.92L9.52 5.36V6.32L4.576 8.4L9.52 10.48V11.44L3.44 8.88Z" fill="black"/>
<path d="M26.32 20.2L22.68 30H21.42L25.06 20.2H26.32ZM31.7122 24.68V25.52L26.3922 27.76V26.92L30.7182 25.1L26.3922 23.28V22.44L31.7122 24.68Z" fill="black"/>
</g>
<defs>
<clipPath id="clip0_122_30">
<rect width="32" height="32" fill="white"/>
</clipPath>
</defs>
</svg>
