<svg width="256" height="205" viewBox="0 0 256 205" fill="none" xmlns="http://www.w3.org/2000/svg">
<path fill-rule="evenodd" clip-rule="evenodd" d="M112.547 172.047L116.071 166.39L113.151 162.196L108.319 161.221C106.105 158.685 108.219 156.93 107.514 153.906C104.595 149.81 98.4538 149.322 97.2458 146.981C99.0577 151.565 103.689 155.467 102.581 160.928L97.5477 163.367L89.897 163.659L81.4407 163.367L76.8101 166.098H67.8506L61.6091 163.172L49.9315 162.782L40.4687 161.709L31.3079 156.735L31.61 151.76L28.7912 148.152H25.9725L24.9659 146.981L23.4558 140.642L18.1203 136.448L21.6437 134.985V132.546L17.919 131.571L16.107 124.256L14.5969 115.381L13.0869 111.577L13.3889 104.165L15.9056 99.5806L18.9257 91.973L21.0397 87.4866V83.2926L18.221 79.684L17.919 75.3925L20.939 76.5628L23.7577 75.3925L27.2812 71.2962L28.2878 67.8825L29.7979 64.2738L33.5227 67.6875L36.5427 62.1281L40.8715 57.6417L44.1935 56.9588L48.2202 50.3267L50.737 52.4724L57.2804 48.8638L55.1664 46.4255L55.7703 39.5006L56.777 36.087L61.0052 28.4795L64.2266 26.7238L63.5218 22.9201L66.4411 18.6286L70.6694 13.7521L71.4747 10.3384L77.0114 13.557L83.1523 11.4113H90.803L93.7223 7.11985L101.373 5.94948L107.917 1.75558L121.306 0L133.889 7.31493L150.499 2.7309L157.647 6.53467L173.754 8.87544L178.586 12.9718L179.291 21.8472L184.726 24.5781L188.35 31.893L190.062 31.9907L188.35 37.6474L190.868 42.3291L196.908 42.6217L202.948 46.0353L205.767 50.1316L214.826 53.6428L220.968 55.0082L223.585 59.5923L221.873 68.7604L222.477 69.3455L225.799 72.9542L223.987 78.9037L226.604 81.6346L223.585 89.6322L231.135 95.6793L227.913 97.3374L230.532 102.019L230.833 106.213L234.86 110.309L239.894 119.477L239.188 121.233L243.92 133.619L238.384 138.984L236.471 142.787L236.773 146.299L231.035 148.347H226.403L223.082 153.613L218.752 153.321L212.612 158.003V158.685L207.881 164.342L204.559 163.172L199.022 159.661L191.874 158.685L186.538 160.051L183.318 161.514L176.875 164.635L172.042 164.342L165.902 160.051L158.956 160.831L155.331 163.757L147.681 164.049H137.815L135.701 161.514H132.882L131.876 164.049L132.278 164.732L134.795 169.706L136.003 173.218H135.903L127.849 173.51L125.634 174.485H121.809L120.702 173.803L113.856 173.51L112.547 172.047ZM146.573 97.8249C145.869 98.6052 145.768 99.678 145.466 100.946C144.661 104.36 143.654 107.871 142.345 111.089C137.211 123.086 129.258 118.989 127.245 131.474C125.232 144.445 127.245 155.077 137.916 139.569C139.023 137.911 139.527 135.277 140.433 133.327C143.553 126.597 146.775 122.403 147.681 114.113C148.184 110.894 147.983 100.166 146.573 97.8249ZM111.138 142.69L114.863 134.79C119.594 124.354 119.393 118.307 117.178 107.383C116.977 106.213 117.077 105.628 116.172 105.14C114.762 107.676 114.963 116.454 111.339 119.38C109.427 120.94 108.923 119.867 108.017 122.598C105.098 131.571 109.225 142.202 111.138 142.69ZM104.897 106.408C106.407 105.628 110.031 95.5817 106.709 88.0718C106.105 86.6087 105.501 85.4384 104.897 84.0729C104.293 82.7075 104.192 80.9518 103.487 79.684C102.682 78.2209 99.6619 74.1245 97.0445 74.5148C93.9237 75.0999 90.9036 87.389 96.8432 91.2902C100.065 93.436 101.071 93.1434 102.883 97.0448C104.091 99.678 104.192 105.042 104.897 106.408ZM138.822 69.9307C138.017 71.979 135.802 76.3679 134.493 78.416C127.849 89.4372 129.661 83.0975 126.641 96.4594C126.138 98.7028 123.319 104.555 125.634 106.505C128.252 108.749 133.084 103.969 133.99 102.994C136.003 100.849 137.916 97.9225 138.017 94.0211C138.218 89.7298 137.513 85.7309 137.614 81.4395C137.815 77.7334 139.023 73.3444 138.822 69.9307ZM0 198.674H256V204.916H0V198.674ZM38.4554 80.9518C34.4287 87.9741 33.4219 95.7768 32.6166 103.384C37.2473 116.356 47.5156 123.964 54.7637 134.205C46.7101 117.429 39.0594 99.7757 38.4554 80.9518ZM54.059 91.3879C50.3344 75.8802 54.1597 70.711 59.797 54.8131C48.6228 72.2716 40.3681 77.5382 52.1463 96.5571C52.5489 94.3139 53.9584 91.1927 54.059 91.3879ZM193.686 85.1458C194.088 85.1458 194.289 86.9989 194.492 87.9741C211.606 58.9095 201.035 65.4441 193.384 50.3267C198.921 66.4195 201.337 72.7591 193.686 85.1458ZM200.23 122.598C200.633 122.501 197.612 128.84 197.813 129.913C213.72 101.239 222.075 111.089 212.31 77.3431C211.908 101.629 205.464 113.138 200.23 122.598ZM88.8903 52.0822C84.8635 49.9367 84.0582 48.8638 82.8502 34.6239C74.4947 57.154 82.2462 63.396 84.6623 73.637C89.897 65.9318 91.2057 59.4948 88.8903 52.0822ZM122.816 77.8308C129.258 67.8824 134.896 33.5511 123.923 16.1904C132.178 38.7203 116.373 40.6709 117.782 57.154C116.977 62.2257 124.728 59.5923 122.816 77.8308ZM164.19 62.7132C163.385 50.5218 170.23 46.2304 158.855 26.5287C162.58 53.2527 152.613 44.6698 152.815 58.4219C153.721 63.9812 158.553 83.7803 164.19 62.7132ZM158.05 144.738C185.532 121.818 182.311 82.5123 171.338 63.396C173.251 98.8003 156.942 105.823 159.358 119.575C175.062 122.891 156.036 138.691 158.05 144.738ZM186.639 143.08C195.397 128.743 188.35 131.084 192.479 94.4113C183.821 139.374 165.7 140.349 165.801 154.004C177.378 147.957 180.801 150.395 186.639 143.08ZM91.407 118.404C87.6822 111.967 73.2866 97.0448 73.3873 67.9801C68.0519 123.769 88.1856 126.695 88.2864 140.544C94.125 131.376 93.2191 127.67 91.407 118.404ZM80.4341 159.758C85.2663 147.371 60.6025 133.132 57.9851 98.8003C59.797 134.497 57.9851 151.858 68.2533 154.199C76.2061 156.442 76.4074 155.369 80.4341 159.758ZM147.882 152.443C151.607 146.006 148.184 148.639 148.989 135.863C146.473 145.421 146.775 144.543 143.855 148.932C141.339 152.931 141.641 160.831 147.882 152.443ZM105.702 24.4806C104.494 19.7991 102.179 19.2139 101.373 8.29026C100.366 20.6769 96.3397 19.2139 98.0511 28.6745C96.1384 41.5488 107.514 30.4301 105.702 24.4806Z" fill="#83A394"/>
</svg>
