<svg width="117" height="67" viewBox="0 0 117 67" fill="none" xmlns="http://www.w3.org/2000/svg">
<path d="M71.1122 1.07942C72.0421 0.483275 73.2792 0.753821 73.8754 1.6837L83.0504 15.9952C83.6466 16.9251 83.376 18.1622 82.4461 18.7583L13.0176 63.2688C12.0877 63.8649 10.8506 63.5944 10.2545 62.6645L1.07942 48.353C0.483275 47.4232 0.753823 46.1861 1.68371 45.5899L71.1122 1.07942Z" fill="#5863C5"/>
<path d="M104.492 4.19716C105.422 3.60101 106.659 3.87156 107.255 4.80144L116.43 19.1129C117.026 20.0428 116.755 21.2799 115.826 21.876L46.397 66.3865C45.4671 66.9827 44.23 66.7121 43.6339 65.7823L34.4588 51.4708C33.8627 50.5409 34.1332 49.3038 35.0631 48.7077L104.492 4.19716Z" fill="#B6BAE4"/>
</svg>
