<svg width="32" height="32" viewBox="0 0 32 32" fill="none" xmlns="http://www.w3.org/2000/svg">
<path d="M19.4095 7.08733C19.666 6.92286 20.0074 6.9975 20.1718 7.25406L22.7032 11.2026C22.8677 11.4592 22.7931 11.8005 22.5365 11.965L3.3811 24.2455C3.12454 24.4099 2.78322 24.3353 2.61875 24.0787L0.0873346 20.1302C-0.077143 19.8736 -0.00249842 19.5323 0.254057 19.3678L19.4095 7.08733Z" fill="#5863C5"/>
<path d="M28.6189 7.94752C28.8755 7.78304 29.2168 7.85769 29.3813 8.11425L31.9127 12.0628C32.0771 12.3194 32.0025 12.6607 31.7459 12.8251L12.5905 25.1057C12.334 25.2701 11.9926 25.1955 11.8282 24.9389L9.29676 20.9904C9.13228 20.7338 9.20692 20.3925 9.46348 20.228L28.6189 7.94752Z" fill="#B6BAE4"/>
</svg>
