<svg width="211" height="45" viewBox="0 0 211 45" fill="none" xmlns="http://www.w3.org/2000/svg">
<path d="M0.296021 3.39999H15.08V5.22399C14.568 5.54399 13.992 5.83199 13.352 6.08799C12.712 6.34399 12.072 6.51999 11.432 6.61599V31.192C11.432 33.816 11.032 35.96 10.232 37.624C9.46402 39.32 8.53602 40.648 7.44802 41.608C6.39202 42.6 5.30402 43.32 4.18402 43.768C3.06402 44.216 2.15202 44.52 1.44802 44.68L0.536021 43.432C1.01602 43.048 1.48002 42.552 1.92802 41.944C2.37602 41.368 2.76002 40.616 3.08002 39.688C3.43202 38.76 3.70402 37.64 3.89602 36.328C4.12002 34.984 4.23202 33.368 4.23202 31.48V6.61599C3.52802 6.45599 2.82402 6.27999 2.12002 6.08799C1.44802 5.86399 0.840021 5.57599 0.296021 5.22399V3.39999Z" fill="#141414"/>
<path d="M19.9393 27.496C19.9393 25.48 19.9873 23.608 20.0833 21.88C20.1793 20.152 20.2273 18.328 20.2273 16.408L17.0593 16.024V14.152C17.5713 13.96 18.1953 13.768 18.9313 13.576C19.6993 13.384 20.4833 13.224 21.2833 13.096C22.0833 12.936 22.8513 12.808 23.5873 12.712C24.3553 12.584 24.9953 12.488 25.5073 12.424H27.1393C27.1393 14.824 27.0913 17.192 26.9953 19.528C26.8993 21.832 26.8513 24.104 26.8513 26.344C26.8513 28.968 27.1073 30.856 27.6193 32.008C28.1633 33.16 29.1553 33.736 30.5953 33.736C31.5873 33.736 32.4993 33.368 33.3313 32.632C34.1953 31.864 34.8993 30.648 35.4433 28.984V16.408L32.3233 16.024V14.152C32.8033 13.96 33.3953 13.768 34.0993 13.576C34.8353 13.384 35.5873 13.224 36.3553 13.096C37.1553 12.936 37.9393 12.808 38.7073 12.712C39.4753 12.584 40.1473 12.488 40.7233 12.424H42.3553V33.592L45.5233 33.976V35.656C45.0753 35.848 44.5153 36.04 43.8433 36.232C43.1713 36.424 42.4673 36.616 41.7313 36.808C40.9953 36.968 40.2593 37.096 39.5233 37.192C38.8193 37.32 38.1793 37.416 37.6033 37.48H35.9713L35.6353 31.768H35.4433C35.2833 32.44 34.9953 33.128 34.5793 33.832C34.1633 34.504 33.6193 35.128 32.9473 35.704C32.3073 36.248 31.5393 36.696 30.6433 37.048C29.7473 37.4 28.7553 37.576 27.6673 37.576C26.4513 37.576 25.3633 37.416 24.4033 37.096C23.4753 36.808 22.6753 36.28 22.0033 35.512C21.3313 34.744 20.8193 33.72 20.4673 32.44C20.1153 31.128 19.9393 29.48 19.9393 27.496Z" fill="#141414"/>
<path d="M61.1266 37H47.8786V35.128C48.9346 34.616 49.9906 34.232 51.0466 33.976V4.88799L47.3986 4.50399V2.63199C47.8146 2.43999 48.3906 2.24799 49.1266 2.05599C49.8626 1.86399 50.6466 1.70399 51.4786 1.57599C52.3426 1.41599 53.1906 1.28799 54.0226 1.19199C54.8866 1.06399 55.6546 0.967991 56.3266 0.903992H57.9586V33.976C59.0146 34.232 60.0706 34.616 61.1266 35.128V37Z" fill="#141414"/>
<path d="M77.0641 37H63.8161V35.128C64.2961 34.872 64.7921 34.664 65.3041 34.504C65.8161 34.312 66.3761 34.136 66.9841 33.976V16.408L63.8161 16.024V14.152C64.2961 13.96 64.8881 13.768 65.5921 13.576C66.3281 13.384 67.0961 13.224 67.8961 13.096C68.6961 12.936 69.4801 12.808 70.2481 12.712C71.0161 12.584 71.6881 12.488 72.2641 12.424H73.8961V33.976C74.5361 34.136 75.1121 34.312 75.6241 34.504C76.1361 34.664 76.6161 34.872 77.0641 35.128V37ZM66.1681 5.12799C66.1681 4.00799 66.5521 3.12799 67.3201 2.48799C68.0881 1.84799 69.0801 1.52799 70.2961 1.52799C71.5121 1.52799 72.5041 1.84799 73.2721 2.48799C74.0401 3.12799 74.4241 4.00799 74.4241 5.12799C74.4241 6.21599 74.0401 7.07999 73.2721 7.71999C72.5041 8.35999 71.5121 8.67999 70.2961 8.67999C69.0801 8.67999 68.0881 8.35999 67.3201 7.71999C66.5521 7.07999 66.1681 6.21599 66.1681 5.12799Z" fill="#141414"/>
<path d="M79.7536 25C79.7536 23.048 80.0416 21.304 80.6176 19.768C81.2256 18.2 82.0736 16.872 83.1616 15.784C84.2816 14.696 85.6256 13.864 87.1936 13.288C88.7616 12.712 90.5376 12.424 92.5216 12.424C94.7616 12.424 96.6816 12.744 98.2816 13.384C99.9136 13.992 101.242 14.856 102.266 15.976C103.322 17.064 104.09 18.392 104.57 19.96C105.05 21.496 105.29 23.176 105.29 25C105.29 26.952 105.002 28.712 104.426 30.28C103.85 31.816 103.002 33.128 101.882 34.216C100.794 35.304 99.4496 36.136 97.8496 36.712C96.2816 37.288 94.5056 37.576 92.5216 37.576C90.3456 37.576 88.4576 37.272 86.8576 36.664C85.2576 36.024 83.9296 35.16 82.8736 34.072C81.8176 32.952 81.0336 31.624 80.5216 30.088C80.0096 28.52 79.7536 26.824 79.7536 25ZM87.1936 25C87.1936 26.44 87.2736 27.768 87.4336 28.984C87.6256 30.168 87.9456 31.176 88.3936 32.008C88.8416 32.84 89.4496 33.496 90.2176 33.976C90.9856 34.424 91.9776 34.648 93.1936 34.648C93.8976 34.648 94.5376 34.488 95.1136 34.168C95.6896 33.816 96.1856 33.272 96.6016 32.536C97.0176 31.768 97.3216 30.776 97.5136 29.56C97.7376 28.312 97.8496 26.792 97.8496 25C97.8496 23.528 97.7536 22.2 97.5616 21.016C97.4016 19.832 97.0976 18.824 96.6496 17.992C96.2336 17.16 95.6576 16.52 94.9216 16.072C94.1856 15.592 93.2576 15.352 92.1376 15.352C91.3056 15.352 90.5856 15.528 89.9776 15.88C89.3696 16.2 88.8576 16.744 88.4416 17.512C88.0256 18.248 87.7056 19.24 87.4816 20.488C87.2896 21.704 87.1936 23.208 87.1936 25Z" fill="#141414"/>
<path d="M145.911 3.39999C145.847 4.83999 145.735 6.32799 145.575 7.86399C145.415 9.39999 145.207 10.84 144.951 12.184H142.983L140.775 6.51999H131.799V18.28H137.655L139.767 14.584H141.303C141.463 16.152 141.543 17.896 141.543 19.816C141.543 21.736 141.463 23.528 141.303 25.192H139.767L137.655 21.4H131.799V33.88H141.159L143.703 27.784H145.671C145.799 28.392 145.927 29.08 146.055 29.848C146.183 30.616 146.279 31.416 146.343 32.248C146.439 33.048 146.503 33.864 146.535 34.696C146.599 35.528 146.631 36.296 146.631 37H120.663V35.176C121.207 34.888 121.815 34.616 122.487 34.36C123.159 34.104 123.863 33.912 124.599 33.784V6.61599C123.959 6.48799 123.271 6.31199 122.535 6.08799C121.831 5.83199 121.207 5.54399 120.663 5.22399V3.39999H145.911Z" fill="#141414"/>
<path d="M163.408 37H150.16V35.128C151.216 34.616 152.272 34.232 153.328 33.976V4.88799L149.68 4.50399V2.63199C150.096 2.43999 150.672 2.24799 151.408 2.05599C152.144 1.86399 152.928 1.70399 153.76 1.57599C154.624 1.41599 155.472 1.28799 156.304 1.19199C157.168 1.06399 157.936 0.967991 158.608 0.903992H160.24V33.976C161.296 34.232 162.352 34.616 163.408 35.128V37Z" fill="#141414"/>
<path d="M187.937 32.968C187.681 33.512 187.265 34.072 186.689 34.648C186.145 35.192 185.457 35.688 184.625 36.136C183.825 36.552 182.881 36.888 181.793 37.144C180.737 37.432 179.585 37.576 178.337 37.576C176.353 37.576 174.593 37.288 173.057 36.712C171.521 36.104 170.241 35.256 169.217 34.168C168.193 33.048 167.409 31.72 166.865 30.184C166.353 28.648 166.097 26.92 166.097 25C166.097 20.904 167.169 17.784 169.313 15.64C171.457 13.496 174.433 12.424 178.241 12.424C179.873 12.424 181.393 12.648 182.801 13.096C184.241 13.544 185.425 14.28 186.353 15.304C187.313 16.328 187.969 17.672 188.321 19.336C188.705 21 188.689 23.032 188.273 25.432H173.537C173.569 27.96 174.209 29.976 175.457 31.48C176.737 32.984 178.609 33.736 181.073 33.736C182.129 33.736 183.217 33.576 184.337 33.256C185.489 32.936 186.385 32.52 187.025 32.008L187.937 32.968ZM178.049 15.16C177.409 15.16 176.833 15.272 176.321 15.496C175.841 15.72 175.409 16.136 175.025 16.744C174.673 17.32 174.385 18.12 174.161 19.144C173.937 20.136 173.777 21.4 173.681 22.936H181.409C181.633 20.44 181.489 18.52 180.977 17.176C180.465 15.832 179.489 15.16 178.049 15.16Z" fill="#141414"/>
<path d="M204.311 18.52C203.927 18.712 203.479 19.032 202.967 19.48C202.455 19.928 201.991 20.664 201.575 21.688V33.976C202.215 34.04 202.855 34.168 203.495 34.36C204.135 34.52 204.775 34.776 205.415 35.128V37H191.495V35.128C192.071 34.808 192.615 34.568 193.127 34.408C193.639 34.248 194.151 34.104 194.663 33.976V16.408L191.495 16.024V14.152C192.007 13.928 192.631 13.72 193.367 13.528C194.135 13.336 194.919 13.176 195.719 13.048C196.519 12.888 197.287 12.76 198.023 12.664C198.791 12.568 199.431 12.488 199.943 12.424H201.575V18.808H201.767C202.023 18.104 202.391 17.368 202.871 16.6C203.383 15.832 203.975 15.128 204.647 14.488C205.319 13.848 206.055 13.336 206.855 12.952C207.655 12.568 208.487 12.392 209.351 12.424C209.703 12.872 210.007 13.512 210.263 14.344C210.519 15.144 210.727 15.912 210.887 16.648V18.52H204.311Z" fill="#141414"/>
</svg>
