<svg xmlns="http://www.w3.org/2000/svg" enable-background="new 0 0 100 100" version="1" viewBox="0 0 100 100" fill="#7d7979"><path d="M25.3-100.5H27c0.9,0,1.6-0.7,1.6-1.6c0-0.9-0.7-1.6-1.6-1.6h-1.7c-0.9,0-1.6,0.7-1.6,1.6
		C23.7-101.3,24.4-100.5,25.3-100.5z"/><path d="M93.4-103.8H33.9c-0.9,0-1.6,0.7-1.6,1.6c0,0.9,0.7,1.6,1.6,1.6h57.9v51.4H58H42H8.2v-51.4h12.5
		c0.9,0,1.6-0.7,1.6-1.6c0-0.9-0.7-1.6-1.6-1.6H6.6c-0.9,0-1.6,0.7-1.6,1.6v54.6c0,0.9,0.7,1.6,1.6,1.6h33.8v6.4h-6.4
		c-0.9,0-1.6,0.7-1.6,1.6s0.7,1.6,1.6,1.6h8H58h8c0.9,0,1.6-0.7,1.6-1.6s-0.7-1.6-1.6-1.6h-6.4v-6.4h33.8c0.9,0,1.6-0.7,1.6-1.6
		v-54.6C95-103,94.3-103.8,93.4-103.8z M56.4-39.5H43.6v-6.4h12.9V-39.5z"/><path d="M21.1-65.6l-4.9 2.8c-.8.4-1 1.4-.6 2.2.3.5.8.8 1.4.8.3 0 .6-.1.8-.2l4.9-2.8c.8-.4 1-1.4.6-2.2C22.9-65.8 21.9-66.1 21.1-65.6zM50.7-80.4c-.1-.5-.4-1-.9-1.2-.5-.2-1-.2-1.5.1L24.8-67.8c-.8.4-1 1.4-.6 2.2.3.5.8.8 1.4.8.3 0 .6-.1.8-.2l21.5-12.6 1.4 7.6c.1.5.4.9.9 1.2.5.2 1 .2 1.5-.1l25.1-14.2.9 1.8c.3.6 1.1.6 1.5.1l4.1-6.2c.4-.5 0-1.3-.7-1.3l-7.4-.4c-.7 0-1.1.6-.8 1.2l1 1.9L52.1-72.8 50.7-80.4zM205.4-115h-64.2c-.9 0-1.6.7-1.6 1.6v4.8h-4.9c-.9 0-1.6.7-1.6 1.6 0 .9.7 1.6 1.6 1.6h4.9v7.3h-4.9c-.9 0-1.6.7-1.6 1.6 0 .9.7 1.6 1.6 1.6h4.9v7.3h-4.9c-.9 0-1.6.7-1.6 1.6 0 .9.7 1.6 1.6 1.6h4.9v7.3h-4.9c-.9 0-1.6.7-1.6 1.6 0 .9.7 1.6 1.6 1.6h4.9v7.3h-4.9c-.9 0-1.6.7-1.6 1.6 0 .9.7 1.6 1.6 1.6h4.9v7.3h-4.9c-.9 0-1.6.7-1.6 1.6s.7 1.6 1.6 1.6h4.9v7.3h-4.9c-.9 0-1.6.7-1.6 1.6s.7 1.6 1.6 1.6h4.9v7.3h-4.9c-.9 0-1.6.7-1.6 1.6s.7 1.6 1.6 1.6h4.9v4.8c0 .9.7 1.6 1.6 1.6h64.2c.9 0 1.6-.7 1.6-1.6v-63.3c0-.9-.7-1.6-1.6-1.6-.9 0-1.6.7-1.6 1.6v61.7h-61v-3.2h4.8c.9 0 1.6-.7 1.6-1.6s-.7-1.6-1.6-1.6h-4.8V-42h4.8c.9 0 1.6-.7 1.6-1.6s-.7-1.6-1.6-1.6h-4.8v-7.3h4.8c.9 0 1.6-.7 1.6-1.6s-.7-1.6-1.6-1.6h-4.8v-7.3h4.8c.9 0 1.6-.7 1.6-1.6 0-.9-.7-1.6-1.6-1.6h-4.8v-7.3h4.8c.9 0 1.6-.7 1.6-1.6 0-.9-.7-1.6-1.6-1.6h-4.8v-7.3h4.8c.9 0 1.6-.7 1.6-1.6 0-.9-.7-1.6-1.6-1.6h-4.8v-7.3h4.8c.9 0 1.6-.7 1.6-1.6 0-.9-.7-1.6-1.6-1.6h-4.8v-7.3h4.8c.9 0 1.6-.7 1.6-1.6 0-.9-.7-1.6-1.6-1.6h-4.8v-3.2h61v7.4c0 .9.7 1.6 1.6 1.6.9 0 1.6-.7 1.6-1.6v-9C207-114.3 206.2-115 205.4-115z"/><path d="M205.4-100.9c-.9 0-1.6.7-1.6 1.6v2.7c0 .9.7 1.6 1.6 1.6.9 0 1.6-.7 1.6-1.6v-2.7C207-100.2 206.2-100.9 205.4-100.9zM174.8-85.6c4.4 0 8 3.1 8 7 0 .9.7 1.6 1.6 1.6.9 0 1.6-.7 1.6-1.6 0-5.1-4.2-9.4-9.6-10.1v-5.4c0-.9-.7-1.6-1.6-1.6s-1.6.7-1.6 1.6v5.4c-5.4.7-9.6 5-9.6 10.1 0 5.6 5 10.2 11.2 10.2 4.4 0 8 3.1 8 7 0 3.9-3.6 7-8 7s-8-3.1-8-7c0-.9-.7-1.6-1.6-1.6s-1.6.7-1.6 1.6c0 5.1 4.2 9.4 9.6 10.1v5.4c0 .9.7 1.6 1.6 1.6s1.6-.7 1.6-1.6v-5.4c5.4-.7 9.6-5 9.6-10.1 0-5.6-5-10.2-11.2-10.2-4.4 0-8-3.1-8-7C166.8-82.5 170.4-85.6 174.8-85.6zM259.7-33h-1.5c-.9 0-1.6.7-1.6 1.6 0 .9.7 1.6 1.6 1.6h1.5c.9 0 1.6-.7 1.6-1.6C261.3-32.3 260.6-33 259.7-33z"/><path d="M333.4-104.7h-6.7v-3.8c0-.9-.7-1.6-1.6-1.6-.9 0-1.6.7-1.6 1.6v3.8h-6.9v-3.8c0-.9-.7-1.6-1.6-1.6-.9 0-1.6.7-1.6 1.6v3.8h-6.9v-3.8c0-.9-.7-1.6-1.6-1.6-.9 0-1.6.7-1.6 1.6v3.8h-6.9v-3.8c0-.9-.7-1.6-1.6-1.6-.9 0-1.6.7-1.6 1.6v3.8h-6.9v-3.8c0-.9-.7-1.6-1.6-1.6-.9 0-1.6.7-1.6 1.6v3.8h-6.9v-3.8c0-.9-.7-1.6-1.6-1.6-.9 0-1.6.7-1.6 1.6v3.8h-6.9v-3.8c0-.9-.7-1.6-1.6-1.6-.9 0-1.6.7-1.6 1.6v3.8H256v-3.8c0-.9-.7-1.6-1.6-1.6s-1.6.7-1.6 1.6v3.8h-6.2c-.9 0-1.6.7-1.6 1.6v13 58.7c0 .9.7 1.6 1.6 1.6h6.7c.9 0 1.6-.7 1.6-1.6 0-.9-.7-1.6-1.6-1.6h-5.1v-55.5h83.6V-33h-65.1c-.9 0-1.6.7-1.6 1.6 0 .9.7 1.6 1.6 1.6h66.7c.9 0 1.6-.7 1.6-1.6v-58.7-13C335-104 334.3-104.7 333.4-104.7zM248.2-91.7v-9.8h4.6v3.8c0 .9.7 1.6 1.6 1.6s1.6-.7 1.6-1.6v-3.8h6.9v3.8c0 .9.7 1.6 1.6 1.6.9 0 1.6-.7 1.6-1.6v-3.8h6.9v3.8c0 .9.7 1.6 1.6 1.6.9 0 1.6-.7 1.6-1.6v-3.8h6.9v3.8c0 .9.7 1.6 1.6 1.6.9 0 1.6-.7 1.6-1.6v-3.8h6.9v3.8c0 .9.7 1.6 1.6 1.6.9 0 1.6-.7 1.6-1.6v-3.8h6.9v3.8c0 .9.7 1.6 1.6 1.6.9 0 1.6-.7 1.6-1.6v-3.8h6.9v3.8c0 .9.7 1.6 1.6 1.6.9 0 1.6-.7 1.6-1.6v-3.8h6.9v3.8c0 .9.7 1.6 1.6 1.6.9 0 1.6-.7 1.6-1.6v-3.8h5.1v9.8H248.2zM404.7-39.9l-1 1c-.6.6-.6 1.6 0 2.3.3.3.7.5 1.1.5.4 0 .8-.2 1.1-.5l1-1c.6-.6.6-1.6 0-2.3C406.3-40.5 405.3-40.5 404.7-39.9z"/><path d="M453.4-115h-27.1c-0.4,0-0.8,0.2-1.1,0.5l-59.7,59.7c-0.6,0.6-0.6,1.6,0,2.3l27.1,27.1
			c0.3,0.3,0.7,0.5,1.1,0.5c0.4,0,0.8-0.2,1.1-0.5l7.9-7.9c0.6-0.6,0.6-1.6,0-2.3c-0.6-0.6-1.6-0.6-2.3,0l-6.8,6.8l-24.8-24.8
			l58.1-58.1h24.8V-87l-43.6,43.6c-0.6,0.6-0.6,1.6,0,2.3c0.6,0.6,1.6,0.6,2.3,0l44.1-44.1c0.3-0.3,0.5-0.7,0.5-1.1v-27.1
			C455-114.3,454.3-115,453.4-115z"/><path d="M446.5-98.1c1.1-1.1 1.7-2.6 1.7-4.2 0-1.6-.6-3.1-1.7-4.2-2.2-2.2-6.2-2.3-8.4 0-2.3 2.3-2.3 6.1 0 8.4 1.1 1.1 2.6 1.7 4.2 1.7C443.9-96.4 445.4-97 446.5-98.1zM440.4-104.3c.5-.5 1.2-.8 1.9-.8s1.4.3 1.9.8c.5.5.8 1.2.8 1.9 0 .7-.3 1.4-.8 1.9-1 1-2.8 1-3.9 0C439.3-101.4 439.3-103.2 440.4-104.3zM418.4-97.3L379-57.9c-.6.6-.6 1.6 0 2.3.3.3.7.5 1.1.5.4 0 .8-.2 1.1-.5L420.7-95c.6-.6.6-1.6 0-2.3C420-97.9 419-97.9 418.4-97.3zM385.1-50.2c.4 0 .8-.2 1.1-.5l30.2-30.2c.6-.6.6-1.6 0-2.3-.6-.6-1.6-.6-2.3 0L383.9-53c-.6.6-.6 1.6 0 2.3C384.2-50.4 384.7-50.2 385.1-50.2zM417.7-84.5c.3.3.7.5 1.1.5s.8-.2 1.1-.5l5.6-5.6c.6-.6.6-1.6 0-2.3s-1.6-.6-2.3 0l-5.6 5.6C417.1-86.1 417.1-85.1 417.7-84.5zM372.7-69.8c.3.5.8.8 1.4.8.3 0 .6-.1.8-.2.8-.5 1-1.4.6-2.2l-6-10.1 42-24.2c.8-.4 1-1.4.6-2.2-.4-.8-1.4-1-2.2-.6l-43.4 25c-.4.2-.6.6-.8 1-.1.4 0 .9.2 1.2L372.7-69.8zM569.1-93.8h-24.6v-5.6c0-3.2-2.6-5.9-5.9-5.9h-17.1c-3.2 0-5.9 2.6-5.9 5.9v5.6h-24.6c-3.2 0-5.9 2.7-5.9 6v47.2c0 3.3 2.6 6 5.9 6h10.9c.9 0 1.6-.7 1.6-1.6s-.7-1.6-1.6-1.6h-10.9c-1.5 0-2.7-1.2-2.7-2.8v-25.3h15.9v3.3c0 .9.7 1.6 1.6 1.6h5c.9 0 1.6-.7 1.6-1.6v-3.3h34.9v3.3c0 .9.7 1.6 1.6 1.6h5c.9 0 1.6-.7 1.6-1.6v-3.3h16.3v25.3c0 1.5-1.2 2.8-2.7 2.8h-55.9c-.9 0-1.6.7-1.6 1.6s.7 1.6 1.6 1.6h55.9c3.2 0 5.9-2.7 5.9-6v-47.2C575-91.1 572.4-93.8 569.1-93.8zM518.8-99.5c0-1.5 1.2-2.7 2.7-2.7h17.1c1.5 0 2.7 1.2 2.7 2.7v5.6h-22.5V-99.5zM509.1-64.2h-1.8v-6.7h1.8V-64.2zM552.3-64.2h-1.8v-6.7h1.8V-64.2zM555.5-69.1v-3.3c0-.9-.7-1.6-1.6-1.6h-5c-.9 0-1.6.7-1.6 1.6v3.3h-34.9v-3.3c0-.9-.7-1.6-1.6-1.6h-5c-.9 0-1.6.7-1.6 1.6v3.3h-15.9v-18.7c0-1.5 1.2-2.8 2.7-2.8h78.2c1.5 0 2.7 1.2 2.7 2.8v18.7H555.5z"/><path d="M507.6-37.9h-1.2c-.9 0-1.6.7-1.6 1.6s.7 1.6 1.6 1.6h1.2c.9 0 1.6-.7 1.6-1.6S508.5-37.9 507.6-37.9zM683.8-113.4c0-.9-.7-1.6-1.6-1.6h-64.3c-.9 0-1.6.7-1.6 1.6v58.9c0 .9.7 1.6 1.6 1.6.9 0 1.6-.7 1.6-1.6v-57.3h61.1v64.3h-17.7c-.9 0-1.6.7-1.6 1.6v17.7h-41.8v-11.9c0-.9-.7-1.6-1.6-1.6-.9 0-1.6.7-1.6 1.6v13.5c0 .9.7 1.6 1.6 1.6h45c.2 0 .4 0 .6-.1.2-.1.3-.2.5-.3 0 0 0 0 .1 0l19.3-19.3c.1-.1.3-.3.3-.5.1-.2.1-.4.1-.6V-113.4zM678.3-44.3l-13.8 13.8v-13.8H678.3z"/><path d="M617.9-43.4c.9 0 1.6-.7 1.6-1.6v-2.7c0-.9-.7-1.6-1.6-1.6-.9 0-1.6.7-1.6 1.6v2.7C616.3-44.2 617-43.4 617.9-43.4zM627.5-101.6h45c.9 0 1.6-.7 1.6-1.6 0-.9-.7-1.6-1.6-1.6h-45c-.9 0-1.6.7-1.6 1.6C625.9-102.3 626.6-101.6 627.5-101.6zM627.5-92.8h45c.9 0 1.6-.7 1.6-1.6 0-.9-.7-1.6-1.6-1.6h-45c-.9 0-1.6.7-1.6 1.6C625.9-93.5 626.6-92.8 627.5-92.8zM672.5-87.1h-33.3c-.9 0-1.6.7-1.6 1.6 0 .9.7 1.6 1.6 1.6h33.3c.9 0 1.6-.7 1.6-1.6C674.1-86.4 673.4-87.1 672.5-87.1zM627.5-83.9h6.6c.9 0 1.6-.7 1.6-1.6 0-.9-.7-1.6-1.6-1.6h-6.6c-.9 0-1.6.7-1.6 1.6C625.9-84.6 626.6-83.9 627.5-83.9zM779.9-98.9h2.6c.9 0 1.6-.7 1.6-1.6 0-.9-.7-1.6-1.6-1.6h-2.6c-.9 0-1.6.7-1.6 1.6C778.3-99.6 779.1-98.9 779.9-98.9zM752.5-61.5c.4 0 .8-.1 1.1-.4l2.3-2.1c.7-.6.7-1.6.1-2.3-.6-.7-1.6-.7-2.3-.1l-2.3 2.1c-.7.6-.7 1.6-.1 2.3C751.6-61.7 752-61.5 752.5-61.5z"/><path d="M815-39.2c0-.1 0-.1 0-.2v-61.1c0-.1 0-.1 0-.2 0-.1 0-.2-.1-.3 0-.1-.1-.2-.2-.3 0-.1-.1-.1-.1-.2 0 0 0 0 0 0-.1-.1-.2-.1-.3-.2-.1-.1-.2-.1-.2-.2-.1 0-.2-.1-.3-.1-.1 0-.2-.1-.3-.1 0 0 0 0-.1 0h-25.8c-.9 0-1.6.7-1.6 1.6 0 .9.7 1.6 1.6 1.6H809l-39 33.2-39-33.2h43.9c.9 0 1.6-.7 1.6-1.6 0-.9-.7-1.6-1.6-1.6h-48.2c0 0 0 0-.1 0-.1 0-.2 0-.3.1-.1 0-.2 0-.3.1-.1 0-.2.1-.2.2-.1.1-.2.1-.3.2 0 0 0 0-.1 0-.1.1-.1.1-.1.2-.1.1-.1.2-.2.3 0 .1-.1.2-.1.3 0 .1 0 .1 0 .2v61.1c0 .1 0 .2 0 .2 0 .1 0 .2.1.4 0 .1.1.2.2.3 0 .1.1.1.1.2 0 0 0 0 0 0 .1.1.3.2.5.3 0 0 0 0 .1.1.2.1.4.1.6.1h86.8c.2 0 .4 0 .6-.1 0 0 .1 0 .1-.1.2-.1.3-.2.4-.3 0 0 0 0 0 0 .1-.1.1-.1.1-.2.1-.1.1-.2.2-.3C814.9-39 814.9-39.1 815-39.2zM770-62c.4 0 .7-.1 1-.4l40.7-34.7v53.9l-25.4-23.3c-.7-.6-1.7-.6-2.3.1-.6.7-.6 1.7.1 2.3l25.1 22.9h-78.5l19.2-17.5c.7-.6.7-1.6.1-2.3-.6-.7-1.6-.7-2.3-.1l-19.6 17.9v-53.9L769-62.3C769.3-62.1 769.6-62 770-62zM869.6-111.8h1.7c.9 0 1.6-.7 1.6-1.6 0-.9-.7-1.6-1.6-1.6h-1.7c-.9 0-1.6.7-1.6 1.6C868-112.5 868.8-111.8 869.6-111.8z"/><path d="M918.5-115h-41.4c-0.9,0-1.6,0.7-1.6,1.6c0,0.9,0.7,1.6,1.6,1.6h41.4c2,0,3.6,1.6,3.6,3.6v51.3H914
			c-0.7-10.1-7.6-18.5-16.9-21.4c3.5-2.3,5.8-6.2,5.8-10.7c0-7.1-5.8-12.9-12.9-12.9s-12.9,5.8-12.9,12.9c0,4.5,2.3,8.4,5.8,10.7
			c-9.4,2.9-16.3,11.3-16.9,21.4h-8.1v-51.3c0-2,1.6-3.6,3.6-3.6h2.9c0.9,0,1.6-0.7,1.6-1.6c0-0.9-0.7-1.6-1.6-1.6h-2.9
			c-3.8,0-6.8,3.1-6.8,6.8v76.3c0,3.8,3.1,6.8,6.8,6.8h57.1c3.8,0,6.8-3.1,6.8-6.8v-76.3C925.4-111.9,922.3-115,918.5-115z
			 M890-76.1c11,0,20,8.5,20.8,19.2h-41.6C870-67.6,879-76.1,890-76.1z M880.4-89c0-5.3,4.3-9.6,9.6-9.6s9.6,4.3,9.6,9.6
			s-4.3,9.6-9.6,9.6S880.4-83.7,880.4-89z M918.5-28.2h-57.1c-2,0-3.6-1.6-3.6-3.6v-21.8h64.3v21.8
			C922.1-29.8,920.5-28.2,918.5-28.2z"/><path d="M914.1-48.6h-48.2c-.9 0-1.6.7-1.6 1.6 0 .9.7 1.6 1.6 1.6h48.2c.9 0 1.6-.7 1.6-1.6C915.7-47.9 915-48.6 914.1-48.6zM914.1-42.2h-48.2c-.9 0-1.6.7-1.6 1.6s.7 1.6 1.6 1.6h48.2c.9 0 1.6-.7 1.6-1.6S915-42.2 914.1-42.2zM914.1-34.2h-10.7c-.9 0-1.6.7-1.6 1.6 0 .9.7 1.6 1.6 1.6h10.7c.9 0 1.6-.7 1.6-1.6C915.7-33.5 915-34.2 914.1-34.2zM898.4-34.2H897c-.9 0-1.6.7-1.6 1.6 0 .9.7 1.6 1.6 1.6h1.5c.9 0 1.6-.7 1.6-1.6C900-33.5 899.3-34.2 898.4-34.2zM1047.5-98.9h-20.1c-.9 0-1.6.7-1.6 1.6 0 .9.7 1.6 1.6 1.6h20.1c2.4 0 4.3 1.9 4.3 4.3v5.1h-83.6v-5.1c0-2.4 1.9-4.3 4.3-4.3h43c.9 0 1.6-.7 1.6-1.6 0-.9-.7-1.6-1.6-1.6h-43c-4.1 0-7.5 3.4-7.5 7.5v42.9c0 4.1 3.4 7.5 7.5 7.5h75c4.1 0 7.5-3.4 7.5-7.5v-42.9C1055-95.6 1051.6-98.9 1047.5-98.9zM1051.8-83.1v5.1h-83.6v-5.1H1051.8zM1047.5-44.3h-75c-2.4 0-4.3-1.9-4.3-4.3v-26.3h83.6v26.3C1051.8-46.2 1049.9-44.3 1047.5-44.3z"/><path d="M1019.9-95.7h2.2c.9 0 1.6-.7 1.6-1.6 0-.9-.7-1.6-1.6-1.6h-2.2c-.9 0-1.6.7-1.6 1.6C1018.3-96.4 1019.1-95.7 1019.9-95.7zM1040-63.6h-11.9c-2.9 0-5.3 2.4-5.3 5.3v2.2c0 2.9 2.4 5.3 5.3 5.3h11.9c2.9 0 5.3-2.4 5.3-5.3v-2.2C1045.4-61.2 1043-63.6 1040-63.6zM1042.1-56c0 1.2-.9 2.1-2.1 2.1h-11.9c-1.2 0-2.1-.9-2.1-2.1v-2.2c0-1.2.9-2.1 2.1-2.1h11.9c1.2 0 2.1.9 2.1 2.1V-56zM995.5-62h-19.3c-.9 0-1.6.7-1.6 1.6s.7 1.6 1.6 1.6h19.3c.9 0 1.6-.7 1.6-1.6S996.4-62 995.5-62zM1002.1-55.5h-1.2c-.9 0-1.6.7-1.6 1.6 0 .9.7 1.6 1.6 1.6h1.2c.9 0 1.6-.7 1.6-1.6C1003.7-54.8 1003-55.5 1002.1-55.5zM995.5-55.5h-19.3c-.9 0-1.6.7-1.6 1.6 0 .9.7 1.6 1.6 1.6h19.3c.9 0 1.6-.7 1.6-1.6C997.1-54.8 996.4-55.5 995.5-55.5z"/><g><path d="M1149.3-111.2c-12.8,0-25.7,3.1-25.7,9v22.4c-3.4-1.6-7.2-2.5-11.3-2.5c-15.1,0-27.3,12.3-27.3,27.3
			c0,5,1.4,9.9,4,14.2c0.5,0.8,1.5,1,2.2,0.5c0.8-0.5,1-1.5,0.5-2.2c-2.3-3.8-3.5-8.1-3.5-12.5c0-13.3,10.8-24.1,24.1-24.1
			s24.1,10.8,24.1,24.1s-10.8,24.1-24.1,24.1c-4.6,0-9.1-1.3-12.9-3.8c-0.8-0.5-1.7-0.3-2.2,0.5c-0.5,0.7-0.3,1.7,0.5,2.2
			c4.4,2.8,9.5,4.3,14.7,4.3c5.4,0,10.4-1.6,14.6-4.3c4.4,2.7,12.8,4.3,22.3,4.3c12.8,0,25.7-3.1,25.7-9v-65.5
			C1175-108.1,1162.1-111.2,1149.3-111.2z M1171.8-49.7c0,2-7.9,5.8-22.5,5.8c-4.1,0-8.1-0.3-11.6-1c1.2-3,1.9-6.2,1.9-9.6
			c3,0.4,6.3,0.6,9.7,0.6c8.9,0,17.9-1.5,22.5-4.4V-49.7z M1149.3-108c14.6,0,22.5,3.8,22.5,5.8s-7.9,5.8-22.5,5.8
			c-14.6,0-22.5-3.8-22.5-5.8S1134.7-108,1149.3-108z M1126.8-78.1v-19.5c4.6,2.9,13.6,4.4,22.5,4.4c8.9,0,17.9-1.5,22.5-4.4v8.5
			c0,2-7.9,5.8-22.5,5.8c-4.6,0-9-0.4-12.8-1.2c-0.9-0.2-1.7,0.4-1.9,1.3c-0.2,0.9,0.4,1.7,1.3,1.9c4,0.8,8.7,1.2,13.4,1.2
			c8.9,0,17.9-1.5,22.5-4.4v21.6c0,2-7.9,5.8-22.5,5.8c-3.4,0-6.7-0.2-9.8-0.7c-0.4-3.7-1.5-7.2-3.2-10.4c3.9,0.7,8.4,1.1,13,1.1
			c4.8,0,9.4-0.4,13.4-1.2c0.9-0.2,1.4-1,1.3-1.9c-0.2-0.9-1-1.4-1.9-1.3c-3.8,0.8-8.2,1.2-12.8,1.2c-5.8,0-11.4-0.7-15.6-1.8
			C1131.7-74.4,1129.4-76.4,1126.8-78.1z M1149.3-30.8c-8.9,0-15.7-1.5-19.4-3.2c2.6-2.2,4.8-4.9,6.5-7.9c3.9,0.7,8.3,1.2,13,1.2
			c8.9,0,17.9-1.5,22.5-4.4v8.5C1171.8-34.7,1163.8-30.8,1149.3-30.8z"/><path d="M1133.5-83.4c.3-.8-.2-1.7-1-2-.6-.2-1.2-.4-1.8-.7-.8-.3-1.8.1-2.1.9-.3.8.1 1.8.9 2.1.6.3 1.3.5 2.1.7.2.1.3.1.5.1C1132.6-82.3 1133.2-82.7 1133.5-83.4zM1166.6-69.2c.2 0 .3 0 .5-.1.7-.2 1.4-.5 2.1-.7.8-.3 1.2-1.3.9-2.1-.3-.8-1.3-1.2-2.1-.9-.6.2-1.2.4-1.8.7-.8.3-1.3 1.2-1 2C1165.3-69.6 1166-69.2 1166.6-69.2zM1094.4-38.8c-.6-.7-1.6-.7-2.3-.1-.7.6-.7 1.6-.1 2.3.4.4.7.8 1.1 1.2.3.3.7.5 1.1.5.4 0 .8-.2 1.1-.5.6-.6.6-1.6 0-2.3C1095.1-38.1 1094.7-38.4 1094.4-38.8zM1112.3-46.2c-2.6 0-4.8-1.6-4.8-3.6 0-.9-.7-1.6-1.6-1.6s-1.6.7-1.6 1.6c0 3.3 2.8 6 6.4 6.6v2.7c0 .9.7 1.6 1.6 1.6s1.6-.7 1.6-1.6v-2.7c3.7-.6 6.4-3.4 6.4-6.6 0-3.7-3.6-6.8-8-6.8-2.6 0-4.8-1.6-4.8-3.6s2.2-3.6 4.8-3.6 4.8 1.6 4.8 3.6c0 .9.7 1.6 1.6 1.6s1.6-.7 1.6-1.6c0-3.3-2.8-6-6.4-6.6v-2.7c0-.9-.7-1.6-1.6-1.6s-1.6.7-1.6 1.6v2.7c-3.7.6-6.4 3.4-6.4 6.6 0 3.7 3.6 6.8 8 6.8 2.6 0 4.8 1.6 4.8 3.6C1117.1-47.8 1114.9-46.2 1112.3-46.2zM1090.4-80.5c.9 0 1.6-.7 1.6-1.6v-13.5c0-.9-.7-1.6-1.6-1.6-.9 0-1.6.7-1.6 1.6v13.5C1088.7-81.2 1089.5-80.5 1090.4-80.5zM1090.4-100.6c.9 0 1.6-.7 1.6-1.6v-5.7c0-.9-.7-1.6-1.6-1.6-.9 0-1.6.7-1.6 1.6v5.7C1088.7-101.3 1089.5-100.6 1090.4-100.6zM1103.8-87c.9 0 1.6-.7 1.6-1.6v-22.2c0-.9-.7-1.6-1.6-1.6s-1.6.7-1.6 1.6v22.2C1102.1-87.7 1102.9-87 1103.8-87zM1117.1-87c.9 0 1.6-.7 1.6-1.6v-11.1c0-.9-.7-1.6-1.6-1.6s-1.6.7-1.6 1.6v11.1C1115.5-87.7 1116.3-87 1117.1-87zM1117.1-103.3c.9 0 1.6-.7 1.6-1.6v-.9c0-.9-.7-1.6-1.6-1.6s-1.6.7-1.6 1.6v.9C1115.5-104 1116.3-103.3 1117.1-103.3z"/></g><g><path d="M93.4 90.5H92c-.9 0-1.6.7-1.6 1.6 0 .9.7 1.6 1.6 1.6h1.4c.9 0 1.6-.7 1.6-1.6C95 91.2 94.3 90.5 93.4 90.5zM87.5 90.5h-1.6V48c0-.9-.7-1.6-1.6-1.6s-1.6.7-1.6 1.6v42.5h-9.5v-64h9.5v11.1c0 .9.7 1.6 1.6 1.6s1.6-.7 1.6-1.6V24.9c0-.9-.7-1.6-1.6-1.6H71.6c-.9 0-1.6.7-1.6 1.6v65.6h-2.7V39.3c0-.9-.7-1.6-1.6-1.6H52.9c-.9 0-1.6.7-1.6 1.6v51.2h-2.7V53.8c0-.9-.7-1.6-1.6-1.6H34.3c-.9 0-1.6.7-1.6 1.6v36.7h-2.7V66.7c0-.9-.7-1.6-1.6-1.6H15.7c-.9 0-1.6.7-1.6 1.6v23.8H6.6c-.9 0-1.6.7-1.6 1.6 0 .9.7 1.6 1.6 1.6h80.9c.9 0 1.6-.7 1.6-1.6C89.1 91.2 88.4 90.5 87.5 90.5zM54.5 40.9h9.5v49.6h-9.5V40.9zM35.9 55.4h9.5v35.1h-9.5V55.4zM17.3 68.3h9.5v22.2h-9.5V68.3z"/><path d="M84.3 40.7c-.9 0-1.6.7-1.6 1.6v1.5c0 .9.7 1.6 1.6 1.6s1.6-.7 1.6-1.6v-1.5C85.9 41.4 85.2 40.7 84.3 40.7zM19.9 53.2c.3 0 .6-.1.8-.2 13-7.7 30.5-20 42.7-35.9l2.6 1.8c1 .7 2.3 0 2.4-1.1l.8-9.8c.1-1.2-1.1-2-2.2-1.5l-8.9 4.2c-1.1.5-1.2 2-.2 2.6l2.8 2c-12 15.5-29 27.4-41.7 35-.8.5-1 1.4-.6 2.2C18.8 52.9 19.4 53.2 19.9 53.2zM12.1 57.6c.3 0 .5-.1.8-.2 1.2-.6 2.6-1.4 4-2.2.8-.4 1-1.4.6-2.2-.4-.8-1.4-1-2.2-.6-1.5.8-2.8 1.6-4 2.2-.8.4-1.1 1.4-.7 2.2C11 57.3 11.5 57.6 12.1 57.6zM6.6 60.4c.2 0 .5 0 .7-.1 0 0 .4-.2 1.2-.6.8-.4 1.1-1.4.7-2.2-.4-.8-1.4-1.1-2.2-.7-.7.4-1.1.5-1.1.5-.8.4-1.2 1.3-.8 2.1C5.4 60 6 60.4 6.6 60.4z"/></g><g><path d="M146.7,24.8c0.2,0,0.4,0,0.5-0.1c0.6-0.2,1.1-0.4,1.6-0.6c0.8-0.3,1.2-1.3,0.9-2.1
			c-0.3-0.8-1.3-1.2-2.1-0.9c-0.5,0.2-1,0.4-1.5,0.6c-0.8,0.3-1.3,1.2-1,2.1C145.5,24.4,146.1,24.8,146.7,24.8z"/><path d="M144.2 24c-.2-.9-1.1-1.4-2-1.1-1.6.5-2.8.7-5 1-.4.1-.8.3-1.1.7-.3.4-.3.8-.3 1.2 1.3 6.4 13.5 62.7 34.1 62.7s32.8-56.3 34.1-62.7c.1-.4 0-.9-.3-1.2-.3-.4-.6-.6-1.1-.7-9-1.3-15.2-4.8-20.7-7.9-4.5-2.5-8.1-4.6-12-4.6s-7.5 2-12 4.6l-1 .6c-1.7 1-3.2 1.8-5.3 2.8-.8.4-1.1 1.3-.8 2.1.4.8 1.3 1.1 2.1.8 2.2-1.1 3.8-2 5.5-2.9l1-.6c4.1-2.3 7.4-4.1 10.5-4.1s6.3 1.8 10.5 4.1c5.1 2.9 11.4 6.5 20.2 8-6.1 28.5-18.1 58.5-30.6 58.5-12.5 0-24.5-30-30.6-58.5 1.2-.2 2.3-.4 3.7-.8C143.9 25.8 144.4 24.9 144.2 24zM143.2 77.1c-2.9-5.1-5.6-11.1-8-17.9-.3-.8-1.2-1.3-2.1-1-.8.3-1.3 1.2-1 2.1 2.5 6.9 5.3 13.1 8.3 18.3.3.5.8.8 1.4.8.3 0 .5-.1.8-.2C143.4 78.8 143.6 77.9 143.2 77.1zM145.8 81.3c-.5-.8-1.5-1-2.2-.5-.7.5-1 1.5-.5 2.2.9 1.4 1.5 2.3 2.4 3.5.3.4.8.7 1.3.7.3 0 .7-.1 1-.3.7-.5.9-1.5.3-2.2C147.2 83.5 146.6 82.6 145.8 81.3z"/><path d="M211.4,18.6c-0.3-0.4-0.8-0.6-1.2-0.6c-11.5,0-18.6-4.1-25-7.6C180.3,7.6,175.6,5,170,5
			s-10.3,2.6-15.2,5.4c-6.3,3.6-13.5,7.6-25,7.6c-0.5,0-0.9,0.2-1.2,0.6c-0.3,0.4-0.4,0.8-0.4,1.3C128.7,23,140.8,95,170,95
			c17,0,28.1-24.5,34.5-45.1c0.3-0.8-0.2-1.7-1.1-2c-0.8-0.3-1.7,0.2-2,1.1C195.4,68.5,185,91.8,170,91.8
			c-24.1,0-36.2-59.3-38.3-70.6c11.2-0.4,18.6-4.6,24.7-8c4.7-2.7,8.8-5,13.6-5s8.9,2.3,13.6,5c6,3.4,13.4,7.6,24.7,8
			c-0.5,2.7-1.6,8.2-3.2,14.9c-0.2,0.9,0.3,1.7,1.2,1.9c0.9,0.2,1.7-0.3,1.9-1.2c2.4-9.7,3.6-16.9,3.6-17
			C211.8,19.4,211.7,18.9,211.4,18.6z"/><path d="M205.4 41.2c-.9-.2-1.7.3-2 1.1l-.2.7c-.1.4-.2.7-.4 1.4-.2.9.2 1.7 1.1 2 .2 0 .3.1.5.1.7 0 1.3-.5 1.5-1.2.2-.8.3-1 .4-1.5l.2-.7C206.7 42.4 206.2 41.5 205.4 41.2zM167.5 60.1C167.6 60.1 167.6 60.1 167.5 60.1c.5 0 .9-.2 1.2-.5l18-17.9c.6-.6.6-1.6 0-2.3-.6-.6-1.6-.6-2.3 0l-16.7 16.7-8.8-10.4c-.6-.7-1.6-.8-2.3-.2-.7.6-.8 1.6-.2 2.3l9.9 11.8C166.7 59.8 167.1 60 167.5 60.1z"/></g><g><path d="M283.2 28.8h1.7c.9 0 1.6-.7 1.6-1.6 0-.9-.7-1.6-1.6-1.6h-1.7c-.9 0-1.6.7-1.6 1.6C281.6 28.1 282.3 28.8 283.2 28.8zM333.4 72.1h-2.3c-.9 0-1.6.7-1.6 1.6s.7 1.6 1.6 1.6h2.3c.9 0 1.6-.7 1.6-1.6S334.3 72.1 333.4 72.1zM326.1 72.1h-49.5l-1-4.7h45c.7 0 1.3-.4 1.5-1.1l12.9-38.6c.2-.5.1-1-.2-1.4-.3-.4-.8-.7-1.3-.7h-42.7c-.9 0-1.6.7-1.6 1.6 0 .9.7 1.6 1.6 1.6h40.5l-11.8 35.4h-44.6l-.8-3.8c-.2-.9-1.1-1.4-1.9-1.2-.9.2-1.4 1-1.2 1.9l2.9 13c.2.7.8 1.3 1.6 1.3h6.8c-.6.9-.9 2-.9 3.2 0 3.5 2.9 6.4 6.4 6.4 3.5 0 6.4-2.9 6.4-6.4 0-1.2-.3-2.3-.9-3.2h15c-.6.9-.9 2-.9 3.2 0 3.5 2.9 6.4 6.4 6.4s6.4-2.9 6.4-6.4c0-1.2-.3-2.3-.9-3.2h6.9c.9 0 1.6-.7 1.6-1.6S326.9 72.1 326.1 72.1zM290.8 78.5c0 1.8-1.4 3.2-3.2 3.2-1.8 0-3.2-1.4-3.2-3.2 0-1.8 1.4-3.2 3.2-3.2C289.4 75.3 290.8 76.8 290.8 78.5zM316.8 78.5c0 1.8-1.4 3.2-3.2 3.2s-3.2-1.4-3.2-3.2c0-1.8 1.4-3.2 3.2-3.2S316.8 76.8 316.8 78.5zM246.6 24.4h11.8c.9 0 1.6-.7 1.6-1.6s-.7-1.6-1.6-1.6h-10.2v-2.9h13.2l7.2 32.8c.2.8.8 1.3 1.6 1.3.1 0 .2 0 .3 0 .9-.2 1.4-1 1.2-1.9L267 28.8h11.7c.9 0 1.6-.7 1.6-1.6 0-.9-.7-1.6-1.6-1.6h-12.4l-2.1-9.3c-.2-.7-.8-1.3-1.6-1.3h-16.1c-.9 0-1.6.7-1.6 1.6v6.2C245 23.7 245.7 24.4 246.6 24.4z"/><path d="M282.8 35.9v20.3c0 .9.7 1.6 1.6 1.6s1.6-.7 1.6-1.6V35.9c0-.9-.7-1.6-1.6-1.6S282.8 35 282.8 35.9zM299 56.2V35.9c0-.9-.7-1.6-1.6-1.6-.9 0-1.6.7-1.6 1.6v20.3c0 .9.7 1.6 1.6 1.6C298.3 57.8 299 57 299 56.2zM312.1 56.2V35.9c0-.9-.7-1.6-1.6-1.6-.9 0-1.6.7-1.6 1.6v20.3c0 .9.7 1.6 1.6 1.6C311.4 57.8 312.1 57 312.1 56.2zM255.9 79.2h-3.3c-.9 0-1.6.7-1.6 1.6s.7 1.6 1.6 1.6h3.3c.9 0 1.6-.7 1.6-1.6S256.8 79.2 255.9 79.2zM275.9 79.2h-15.4c-.9 0-1.6.7-1.6 1.6s.7 1.6 1.6 1.6h15.4c.9 0 1.6-.7 1.6-1.6S276.8 79.2 275.9 79.2zM262 68.2c0-.9-.7-1.6-1.6-1.6h-13.8c-.9 0-1.6.7-1.6 1.6s.7 1.6 1.6 1.6h13.8C261.3 69.8 262 69.1 262 68.2zM265.2 66.6c-.9 0-1.6.7-1.6 1.6s.7 1.6 1.6 1.6h1.8c.9 0 1.6-.7 1.6-1.6s-.7-1.6-1.6-1.6H265.2zM246.6 57.3h3.3c.9 0 1.6-.7 1.6-1.6 0-.9-.7-1.6-1.6-1.6h-3.3c-.9 0-1.6.7-1.6 1.6C245 56.5 245.7 57.3 246.6 57.3zM275.9 55.7c0-.9-.7-1.6-1.6-1.6h-20c-.9 0-1.6.7-1.6 1.6 0 .9.7 1.6 1.6 1.6h20C275.1 57.3 275.9 56.5 275.9 55.7z"/></g><g><path d="M393.7,91h-2.6c-0.9,0-1.6,0.7-1.6,1.6s0.7,1.6,1.6,1.6h2.6c0.9,0,1.6-0.7,1.6-1.6S394.6,91,393.7,91z"/><path d="M447.4,33.1h-74.7c-2.4,0-4.4-2-4.4-4.4v-0.3c0-2.4,2-4.4,4.4-4.4h13.9l-7.9,3.8h-4.7
			c-0.9,0-1.6,0.7-1.6,1.6s0.7,1.6,1.6,1.6h69.9c0.9,0,1.6-0.7,1.6-1.6s-0.7-1.6-1.6-1.6H437l-1.8-3.8h11.5c1.8,0,3.2,1.4,3.2,3.2
			v1.7c0,0.9,0.7,1.6,1.6,1.6s1.6-0.7,1.6-1.6v-1.7c0-3.5-2.9-6.4-6.4-6.4h-13l-6.7-14.1c-0.4-0.8-1.3-1.1-2.1-0.8l-31.5,14.8h-20.7
			c-4.2,0-7.6,3.4-7.6,7.6v12.3v45.8c0,4.2,3.4,7.6,7.6,7.6h12.7c0.9,0,1.6-0.7,1.6-1.6s-0.7-1.6-1.6-1.6h-12.7
			c-2.4,0-4.4-2-4.4-4.4V40.8v-5.9c1.2,0.9,2.8,1.4,4.4,1.4h74.7c2.4,0,4.4,2,4.4,4.4v11.7h-15.4c-5.9,0-10.7,4.8-10.7,10.7
			s4.8,10.7,10.7,10.7h15.4v12.7c0,2.4-2,4.4-4.4,4.4h-46.8c-0.9,0-1.6,0.7-1.6,1.6s0.7,1.6,1.6,1.6h46.8c4.2,0,7.6-3.4,7.6-7.6
			V72.2V54V40.8C455,36.6,451.6,33.1,447.4,33.1z M433.4,27.8h-47.3l38.6-18.2L433.4,27.8z M436.4,70.6c-4.1,0-7.5-3.4-7.5-7.5
			s3.4-7.5,7.5-7.5h15.4v15H436.4z"/><path d="M437.7,57.9c-2.9,0-5.2,2.3-5.2,5.2s2.3,5.2,5.2,5.2c2.9,0,5.2-2.3,5.2-5.2S440.6,57.9,437.7,57.9z
			 M437.7,65.1c-1.1,0-2-0.9-2-2c0-1.1,0.9-2,2-2c1.1,0,2,0.9,2,2C439.7,64.2,438.8,65.1,437.7,65.1z"/></g><g><path d="M486.6,76.7c0.9,0,1.6-0.7,1.6-1.6v-2.3c0-0.9-0.7-1.6-1.6-1.6c-0.9,0-1.6,0.7-1.6,1.6V75
			C485,75.9,485.7,76.7,486.6,76.7z"/><path d="M525.8,27.5h-35.1c-3.2,0-5.8,2.6-5.8,5.8v34.7c0,0.9,0.7,1.6,1.6,1.6c0.9,0,1.6-0.7,1.6-1.6V33.3
			c0-1.4,1.1-2.5,2.5-2.5h35.1c1.4,0,2.5,1.1,2.5,2.5v58.5h-40.2V80.1c0-0.9-0.7-1.6-1.6-1.6c-0.9,0-1.6,0.7-1.6,1.6V95h46.6V33.3
			C531.6,30.1,529,27.5,525.8,27.5z"/><path d="M524.4 48.3V37.2c0-.9-.7-1.6-1.6-1.6h-28.9c-.9 0-1.6.7-1.6 1.6v11.1c0 .9.7 1.6 1.6 1.6h28.9C523.7 49.9 524.4 49.2 524.4 48.3zM521.2 46.7h-25.7v-7.9h25.7V46.7zM511.2 54.1h-5.9-3.2H493v9.6 3.2 6.4 3.2 9.6h9.1 3.2 5.9 3.2 9.1V66.9v-3.2-9.6h-9.1H511.2zM505.4 57.3h5.9v6.4h-5.9V57.3zM511.2 73.3h-5.9v-6.4h5.9V73.3zM496.3 57.3h5.9v6.4h-5.9V57.3zM496.3 66.9h5.9v6.4h-5.9V66.9zM502.1 82.9h-5.9v-6.4h5.9V82.9zM511.2 82.9h-5.9v-6.4h5.9V82.9zM520.4 82.9h-5.9v-6.4-3.2-6.4h5.9V82.9zM520.4 57.3v6.4h-5.9v-6.4H520.4z"/><path d="M513.1 45.5h5.1c.9 0 1.6-.7 1.6-1.6 0-.9-.7-1.6-1.6-1.6h-5.1c-.9 0-1.6.7-1.6 1.6C511.5 44.7 512.2 45.5 513.1 45.5zM573.4 59.1c.9 0 1.6-.7 1.6-1.6V15.3C575 9.6 570.4 5 564.7 5h-37.2c-5.7 0-10.3 4.6-10.3 10.3V20c0 .9.7 1.6 1.6 1.6h15.8v53.8c0 .9.7 1.6 1.6 1.6h37.2c.9 0 1.6-.7 1.6-1.6V62.9c0-.9-.7-1.6-1.6-1.6-.9 0-1.6.7-1.6 1.6v11h-34V15.3c0-2.8-1.1-5.2-2.9-7.1h29.8c3.9 0 7.1 3.2 7.1 7.1v42.2C571.8 58.4 572.5 59.1 573.4 59.1zM534.6 15.3v3.1h-14.2v-3.1c0-3.9 3.2-7.1 7.1-7.1C531.4 8.2 534.6 11.4 534.6 15.3z"/><path d="M565.9 14.1h-22c-.9 0-1.6.7-1.6 1.6 0 .9.7 1.6 1.6 1.6h22c.9 0 1.6-.7 1.6-1.6C567.5 14.8 566.8 14.1 565.9 14.1zM565.9 22.9h-22c-.9 0-1.6.7-1.6 1.6s.7 1.6 1.6 1.6h22c.9 0 1.6-.7 1.6-1.6S566.8 22.9 565.9 22.9zM565.9 31.8h-22c-.9 0-1.6.7-1.6 1.6 0 .9.7 1.6 1.6 1.6h22c.9 0 1.6-.7 1.6-1.6C567.5 32.5 566.8 31.8 565.9 31.8zM567.5 43c0-.9-.7-1.6-1.6-1.6h-2.9c-.9 0-1.6.7-1.6 1.6 0 .9.7 1.6 1.6 1.6h2.9C566.8 44.6 567.5 43.9 567.5 43zM559.7 43c0-.9-.7-1.6-1.6-1.6h-14.2c-.9 0-1.6.7-1.6 1.6 0 .9.7 1.6 1.6 1.6h14.2C559 44.6 559.7 43.9 559.7 43zM560.5 55c1.2 0 2.3.7 2.3 1.5 0 .9.7 1.6 1.6 1.6.9 0 1.6-.7 1.6-1.6 0-2.1-1.7-3.9-3.9-4.5v-1.1c0-.9-.7-1.6-1.6-1.6s-1.6.7-1.6 1.6V52c-2.3.6-3.9 2.4-3.9 4.5 0 2.6 2.5 4.7 5.5 4.7 1.2 0 2.3.7 2.3 1.5 0 .8-1.1 1.5-2.3 1.5s-2.3-.7-2.3-1.5c0-.9-.7-1.6-1.6-1.6-.9 0-1.6.7-1.6 1.6 0 2.1 1.7 3.9 3.9 4.5v1.1c0 .9.7 1.6 1.6 1.6s1.6-.7 1.6-1.6v-1.1c2.3-.6 3.9-2.4 3.9-4.5 0-2.6-2.5-4.7-5.5-4.7-1.2 0-2.3-.7-2.3-1.5C558.2 55.7 559.3 55 560.5 55z"/></g><g><path d="M682.7,5h-65.4c-2.8,0-5.1,2.3-5.1,5.1s2.3,5.1,5.1,5.1h2.1v34c0,0.9,0.7,1.6,1.6,1.6s1.6-0.7,1.6-1.6
			v-41h54.6v80.5l-1.3-0.9c-0.7-0.5-1.6-0.3-2.2,0.3l-2.3,2.8l-3-3c-0.6-0.6-1.6-0.6-2.2-0.1l-3.5,3.2l-3.1-3.1
			c-0.3-0.3-0.8-0.5-1.2-0.5c-0.4,0-0.9,0.2-1.2,0.5l-2.8,3l-3.6-3.2c-0.1,0-0.1-0.1-0.2-0.1c-0.1-0.1-0.2-0.1-0.3-0.2
			c-0.1,0-0.2-0.1-0.3-0.1c-0.1,0-0.2,0-0.3,0c-0.1,0-0.2,0-0.3,0c-0.1,0-0.2,0-0.3,0.1c-0.1,0-0.2,0.1-0.3,0.2
			c-0.1,0-0.1,0.1-0.2,0.1l-3.6,3.2l-2.8-3c-0.3-0.3-0.7-0.5-1.2-0.5c-0.4,0-0.9,0.2-1.2,0.5l-3.1,3.1l-3.5-3.2
			c-0.6-0.6-1.6-0.6-2.2,0.1l-3,3l-2.3-2.8c-0.5-0.7-1.5-0.8-2.2-0.3l-1.3,0.9V54.8c0-0.9-0.7-1.6-1.6-1.6s-1.6,0.7-1.6,1.6v37
			c0,0.1,0,0.1,0,0.2c0,0.1,0,0.2,0.1,0.3c0,0.1,0.1,0.2,0.1,0.3c0,0,0,0.1,0.1,0.1c0,0,0.1,0.1,0.1,0.1c0.1,0.1,0.2,0.2,0.2,0.2
			c0.1,0.1,0.2,0.1,0.2,0.2c0.1,0,0.2,0.1,0.3,0.1c0.1,0,0.2,0.1,0.3,0.1c0,0,0.1,0,0.1,0c0.1,0,0.1,0,0.2,0c0.1,0,0.2,0,0.3-0.1
			c0.1,0,0.2-0.1,0.3-0.1c0,0,0.1,0,0.1-0.1l2.6-1.8l2.5,3.1c0.3,0.4,0.7,0.6,1.2,0.6c0.5,0,0.9-0.1,1.2-0.5l3.1-3.1l3.5,3.2
			c0.6,0.6,1.6,0.6,2.2-0.1l3-3l2.7,3c0.3,0.3,0.8,0.5,1.2,0.5c0.4,0,0.8-0.1,1.1-0.4l3.8-3.3l3.8,3.3c0.3,0.3,0.7,0.4,1.1,0.4
			c0.4,0,0.9-0.2,1.2-0.5l2.7-3l3,3c0.6,0.6,1.6,0.6,2.2,0.1l3.5-3.2l3.1,3.1c0.3,0.3,0.8,0.5,1.2,0.5c0.5,0,0.9-0.2,1.2-0.6
			l2.5-3.1l2.6,1.8c0,0,0.1,0,0.1,0.1c0.1,0.1,0.2,0.1,0.3,0.1c0.1,0,0.2,0.1,0.3,0.1c0.1,0,0.1,0,0.2,0c0.1,0,0.1,0,0.1,0
			c0.1,0,0.2,0,0.3-0.1c0.1,0,0.2-0.1,0.3-0.1c0.1,0,0.2-0.1,0.2-0.2c0.1-0.1,0.2-0.1,0.2-0.2c0,0,0.1-0.1,0.1-0.1
			c0,0,0-0.1,0.1-0.1c0.1-0.1,0.1-0.2,0.1-0.3c0-0.1,0.1-0.2,0.1-0.3c0-0.1,0-0.1,0-0.2V15.2h2.1c2.8,0,5.1-2.3,5.1-5.1
			S685.5,5,682.7,5z M619.5,12h-2.1c-1,0-1.9-0.8-1.9-1.9c0-1,0.8-1.9,1.9-1.9h2.1V12z M682.7,12h-2.1V8.2h2.1c1,0,1.9,0.8,1.9,1.9
			C684.6,11.1,683.7,12,682.7,12z"/><path d="M635.5 39.8c-1.8 0-3.2-1.3-3.2-3 0-.9-.7-1.6-1.6-1.6s-1.6.7-1.6 1.6c0 2.9 2.1 5.3 4.8 6v2.3c0 .9.7 1.6 1.6 1.6s1.6-.7 1.6-1.6v-2.3c2.8-.7 4.8-3.1 4.8-6 0-3.4-2.9-6.2-6.4-6.2-1.8 0-3.2-1.3-3.2-3s1.4-3 3.2-3c1.8 0 3.2 1.3 3.2 3 0 .9.7 1.6 1.6 1.6.9 0 1.6-.7 1.6-1.6 0-2.9-2.1-5.3-4.8-6v-2.3c0-.9-.7-1.6-1.6-1.6s-1.6.7-1.6 1.6v2.3c-2.8.7-4.8 3.1-4.8 6 0 3.4 2.9 6.2 6.4 6.2 1.8 0 3.2 1.3 3.2 3C638.8 38.4 637.3 39.8 635.5 39.8zM671.6 19.3c.9 0 1.6-.7 1.6-1.6s-.7-1.6-1.6-1.6h-3.9c-.9 0-1.6.7-1.6 1.6s.7 1.6 1.6 1.6H671.6zM662.7 16.1H650c-.9 0-1.6.7-1.6 1.6s.7 1.6 1.6 1.6h12.7c.9 0 1.6-.7 1.6-1.6S663.6 16.1 662.7 16.1zM661.1 25.9c0 .9.7 1.6 1.6 1.6h8.8c.9 0 1.6-.7 1.6-1.6 0-.9-.7-1.6-1.6-1.6h-8.8C661.8 24.3 661.1 25 661.1 25.9zM654.8 24.3c-.9 0-1.6.7-1.6 1.6 0 .9.7 1.6 1.6 1.6h3.1c.9 0 1.6-.7 1.6-1.6 0-.9-.7-1.6-1.6-1.6H654.8zM650 27.5h.6c.9 0 1.6-.7 1.6-1.6 0-.9-.7-1.6-1.6-1.6H650c-.9 0-1.6.7-1.6 1.6C648.4 26.8 649.1 27.5 650 27.5zM650 35.7h21.6c.9 0 1.6-.7 1.6-1.6 0-.9-.7-1.6-1.6-1.6H650c-.9 0-1.6.7-1.6 1.6C648.4 34.9 649.1 35.7 650 35.7zM671.6 40.6h-14.1c-.9 0-1.6.7-1.6 1.6 0 .9.7 1.6 1.6 1.6h14.1c.9 0 1.6-.7 1.6-1.6C673.2 41.3 672.4 40.6 671.6 40.6zM650 43.8h2.8c.9 0 1.6-.7 1.6-1.6 0-.9-.7-1.6-1.6-1.6H650c-.9 0-1.6.7-1.6 1.6C648.4 43.1 649.1 43.8 650 43.8zM671.6 48.8h-2.8c-.9 0-1.6.7-1.6 1.6 0 .9.7 1.6 1.6 1.6h2.8c.9 0 1.6-.7 1.6-1.6C673.2 49.5 672.4 48.8 671.6 48.8zM650 52h14.5c.9 0 1.6-.7 1.6-1.6 0-.9-.7-1.6-1.6-1.6H650c-.9 0-1.6.7-1.6 1.6C648.4 51.3 649.1 52 650 52zM628.4 80.8h43.1c.9 0 1.6-.7 1.6-1.6 0-.9-.7-1.6-1.6-1.6h-43.1c-.9 0-1.6.7-1.6 1.6C626.8 80.1 627.6 80.8 628.4 80.8zM671.6 69.8h-1.5c-.9 0-1.6.7-1.6 1.6s.7 1.6 1.6 1.6h1.5c.9 0 1.6-.7 1.6-1.6S672.4 69.8 671.6 69.8zM661.2 69.8c-.9 0-1.6.7-1.6 1.6s.7 1.6 1.6 1.6h4.6c.9 0 1.6-.7 1.6-1.6s-.7-1.6-1.6-1.6H661.2zM628.4 73h28.4c.9 0 1.6-.7 1.6-1.6s-.7-1.6-1.6-1.6h-28.4c-.9 0-1.6.7-1.6 1.6S627.6 73 628.4 73zM636.5 63.7c0 .9.7 1.6 1.6 1.6h33.5c.9 0 1.6-.7 1.6-1.6 0-.9-.7-1.6-1.6-1.6h-33.5C637.2 62.1 636.5 62.8 636.5 63.7zM626.8 63.7c0 .9.7 1.6 1.6 1.6h4.5c.9 0 1.6-.7 1.6-1.6 0-.9-.7-1.6-1.6-1.6h-4.5C627.6 62.1 626.8 62.8 626.8 63.7z"/></g><g><path d="M731.4 29.7c.9 0 1.6-.7 1.6-1.6v-2c0-.9-.7-1.6-1.6-1.6-.9 0-1.6.7-1.6 1.6v2C729.8 29 730.5 29.7 731.4 29.7zM785 69.9h-30c-.9 0-1.6.7-1.6 1.6s.7 1.6 1.6 1.6h13.4v15.8c0 .9.7 1.6 1.6 1.6s1.6-.7 1.6-1.6V73.1H785c.9 0 1.6-.7 1.6-1.6S785.9 69.9 785 69.9zM792.1 69.9H790c-.9 0-1.6.7-1.6 1.6s.7 1.6 1.6 1.6h2.1c.9 0 1.6-.7 1.6-1.6S793 69.9 792.1 69.9z"/><path d="M813.4 9.5h-4.8-77.1-4.8c-.9 0-1.6.7-1.6 1.6 0 .9.7 1.6 1.6 1.6h3.2v8.6c0 .9.7 1.6 1.6 1.6.9 0 1.6-.7 1.6-1.6v-8.6H807v51.4H733V33.3c0-.9-.7-1.6-1.6-1.6-.9 0-1.6.7-1.6 1.6v32.4c0 .9.7 1.6 1.6 1.6h77.1c.9 0 1.6-.7 1.6-1.6v-53h3.2c.9 0 1.6-.7 1.6-1.6C815 10.2 814.3 9.5 813.4 9.5zM763.9 75.7l-7.9 11.1c-.5.7-.3 1.7.4 2.2.3.2.6.3.9.3.5 0 1-.2 1.3-.7l7.9-11.1c.5-.7.3-1.7-.4-2.2C765.4 74.8 764.4 75 763.9 75.7zM776.1 75.7c-.5-.7-1.5-.9-2.2-.4-.7.5-.9 1.5-.4 2.2l7.9 11.1c.3.4.8.7 1.3.7.3 0 .6-.1.9-.3.7-.5.9-1.5.4-2.2L776.1 75.7z"/><path d="M754.3,41.4c0,10.3,8.4,18.7,18.7,18.7c10.3,0,18.7-8.4,18.7-18.7c0-4.2-1.4-8-3.7-11.1c0,0,0,0,0,0
			c0,0,0,0,0,0c-3.4-4.5-8.8-7.4-14.9-7.4c-0.9,0-1.6,0.7-1.6,1.6v15.4h-15.4C755,39.8,754.3,40.5,754.3,41.4z M784.2,30.9l-9.7,7.3
			V26C778.4,26.4,781.8,28.2,784.2,30.9z M772.9,43L772.9,43L772.9,43c0.2,0,0.4,0,0.6-0.1c0.1,0,0.1-0.1,0.2-0.1
			c0.1,0,0.1-0.1,0.2-0.1l12.3-9.2c1.4,2.3,2.2,5,2.2,7.9c0,8.5-6.9,15.4-15.4,15.4c-8,0-14.6-6.1-15.4-13.8H772.9z"/><path d="M767.1,16.8c-10.3,0-18.7,8.4-18.7,18.7c0,0.9,0.7,1.6,1.6,1.6h17c0.9,0,1.6-0.7,1.6-1.6v-17
			C768.7,17.5,767.9,16.8,767.1,16.8z M765.4,33.9h-13.8c0.8-7.2,6.5-13,13.8-13.8V33.9z"/></g><g><path d="M849 21.2c.9 0 1.6-.7 1.6-1.6v-9c0-1.3 1.1-2.4 2.4-2.4h46c1.3 0 2.4 1.1 2.4 2.4v3.2c0 .9.7 1.6 1.6 1.6s1.6-.7 1.6-1.6v-3.2c0-3.1-2.5-5.6-5.6-5.6h-46c-3.1 0-5.6 2.5-5.6 5.6v9C847.4 20.5 848.1 21.2 849 21.2zM849 30.2c.9 0 1.6-.7 1.6-1.6v-2.9c0-.9-.7-1.6-1.6-1.6-.9 0-1.6.7-1.6 1.6v2.9C847.4 29.5 848.1 30.2 849 30.2zM903.1 61.4c-.9 0-1.6.7-1.6 1.6v26.3c0 1.3-1.1 2.4-2.4 2.4h-46c-1.3 0-2.4-1.1-2.4-2.4V33.1c0-.9-.7-1.6-1.6-1.6-.9 0-1.6.7-1.6 1.6v56.3c0 3.1 2.5 5.6 5.6 5.6h46c3.1 0 5.6-2.5 5.6-5.6V63C904.7 62.2 903.9 61.4 903.1 61.4z"/><path d="M876 89.8c3.2 0 5.8-2.6 5.8-5.8 0-3.2-2.6-5.8-5.8-5.8s-5.8 2.6-5.8 5.8C870.2 87.2 872.8 89.8 876 89.8zM876 81.3c1.4 0 2.6 1.2 2.6 2.6 0 1.4-1.2 2.6-2.6 2.6s-2.6-1.2-2.6-2.6C873.4 82.5 874.6 81.3 876 81.3zM925.6 18.6h-44.1c-3.9 0-7 3.1-7 7v25.6c0 3.9 3.1 7 7 7h.9v8.9c0 .6.3 1.2.9 1.4.2.1.5.2.7.2.3 0 .6-.1.9-.3l14.4-10.2h26.2c3.9 0 7-3.1 7-7V25.6C932.6 21.8 929.4 18.6 925.6 18.6zM929.4 51.2c0 2.1-1.7 3.8-3.8 3.8h-26.7c-.3 0-.7.1-.9.3L885.6 64v-7.4c0-.9-.7-1.6-1.6-1.6h-2.5c-2.1 0-3.8-1.7-3.8-3.8V25.6c0-2.1 1.7-3.8 3.8-3.8h44.1c2.1 0 3.8 1.7 3.8 3.8V51.2z"/><path d="M921.7 29.8h-36.3c-.9 0-1.6.7-1.6 1.6s.7 1.6 1.6 1.6h36.3c.9 0 1.6-.7 1.6-1.6S922.5 29.8 921.7 29.8zM921.7 39.7H916c-.9 0-1.6.7-1.6 1.6 0 .9.7 1.6 1.6 1.6h5.7c.9 0 1.6-.7 1.6-1.6C923.3 40.4 922.5 39.7 921.7 39.7zM910.9 39.7h-25.5c-.9 0-1.6.7-1.6 1.6 0 .9.7 1.6 1.6 1.6h25.5c.9 0 1.6-.7 1.6-1.6C912.5 40.4 911.8 39.7 910.9 39.7z"/></g><g><path d="M994.6,52.4c-7.2,0-13,5.8-13,13c0,7.2,5.8,13,13,13c7.1,0,13-5.8,13-13
			C1007.6,58.2,1001.8,52.4,994.6,52.4z M994.6,75.1c-5.4,0-9.8-4.4-9.8-9.8s4.4-9.8,9.8-9.8c5.4,0,9.8,4.4,9.8,9.8
			S1000,75.1,994.6,75.1z"/><path d="M1020.6 60.3l-4.2-.4c-.3 0-.6-.3-.7-.6-.4-1.5-1.1-3-1.9-4.5-.2-.3-.1-.7.1-.9l2.7-3.2c1.3-1.6 1.2-4-.3-5.4l-1.5-1.5c-1.5-1.5-3.8-1.6-5.4-.3l-3.2 2.7c-.3.2-.6.2-.9.1-1.4-.8-2.9-1.4-4.5-1.8-.3-.1-.6-.4-.6-.7l-.4-4.2c-.2-2.1-1.9-3.7-4-3.7h-2.2c-2.1 0-3.8 1.6-4 3.7l-.4 4.2c0 .3-.3.6-.6.7-1.5.4-3 1.1-4.5 1.9-.3.2-.7.1-.9-.1l-3.2-2.7c-1.6-1.3-4-1.2-5.4.3l-1.5 1.5c-1.5 1.5-1.6 3.8-.3 5.4l2.7 3.2c.2.3.2.6.1.9-.8 1.4-1.4 2.9-1.8 4.5-.1.3-.4.6-.7.6l-4.2.4c-2.1.2-3.7 1.9-3.7 4v2.2c0 2.1 1.6 3.8 3.7 4l4.2.4c.3 0 .6.3.7.6.4 1.5 1.1 3 1.9 4.5.2.3.1.7-.1.9l-2.7 3.2c-1.3 1.6-1.2 4 .3 5.4l1.5 1.5c1.5 1.5 3.8 1.6 5.4.3l3.2-2.7c.3-.2.6-.2.9-.1 1.4.8 2.9 1.4 4.5 1.8.3.1.6.4.6.7l.4 4.2c.2 2.1 1.9 3.7 4 3.7h2.2c2.1 0 3.8-1.6 4-3.7l.4-4.2c0-.3.3-.6.6-.7 1.5-.4 3-1.1 4.5-1.8.3-.2.7-.1.9.1l3.2 2.7c1.6 1.3 4 1.2 5.4-.3l1.5-1.5c1.5-1.5 1.6-3.8.3-5.4l-2.7-3.2c-.2-.3-.2-.6-.1-.9.8-1.4 1.4-2.9 1.8-4.5.1-.3.4-.6.7-.6l4.2-.4c2.1-.2 3.7-1.9 3.7-4v-2.2C1024.2 62.2 1022.7 60.5 1020.6 60.3zM1021 66.5c0 .4-.3.8-.8.8l-4.2.4c-1.7.2-3 1.3-3.5 2.9-.4 1.3-.9 2.6-1.6 3.8-.8 1.5-.6 3.2.4 4.5l2.7 3.2c.3.3.3.8-.1 1.1l-1.5 1.5c-.3.3-.8.3-1.1.1l-3.2-2.7c-1.3-1.1-3.1-1.2-4.5-.4-1.2.7-2.5 1.2-3.8 1.6-1.6.5-2.7 1.8-2.9 3.5l-.4 4.2c0 .4-.4.8-.8.8h-2.2c-.4 0-.8-.3-.8-.8l-.4-4.2c-.2-1.7-1.3-3-2.9-3.5-1.3-.4-2.6-.9-3.8-1.6-.6-.3-1.3-.5-2-.5-.9 0-1.8.3-2.6.9l-3.2 2.7c-.3.3-.8.3-1.1-.1l-1.5-1.5c-.3-.3-.3-.8-.1-1.1l2.7-3.2c1.1-1.3 1.2-3.1.4-4.5-.7-1.2-1.2-2.5-1.6-3.8-.5-1.6-1.8-2.7-3.5-2.9l-4.2-.4c-.4 0-.8-.4-.8-.8v-2.2c0-.4.3-.8.8-.8l4.2-.4c1.7-.2 3-1.3 3.5-2.9.4-1.3.9-2.6 1.6-3.8.8-1.5.6-3.2-.4-4.5l-2.7-3.2c-.3-.3-.2-.8.1-1.1l1.5-1.5c.3-.3.8-.3 1.1-.1l3.2 2.7c1.3 1.1 3.1 1.2 4.5.4 1.2-.7 2.5-1.2 3.8-1.6 1.6-.5 2.7-1.8 2.9-3.5l.4-4.2c0-.4.4-.8.8-.8h2.2c.4 0 .8.3.8.8l.4 4.2c.2 1.7 1.3 3 2.9 3.5 1.3.4 2.6.9 3.8 1.6 1.5.8 3.2.6 4.5-.4l3.2-2.7c.3-.3.8-.3 1.1.1l1.5 1.5c.3.3.3.8.1 1.1l-2.7 3.2c-1.1 1.3-1.2 3.1-.4 4.5.7 1.2 1.2 2.5 1.6 3.8.5 1.6 1.8 2.7 3.5 2.9l4.2.4c.4 0 .8.4.8.8V66.5zM1035.9 18.3c-5.5-2.3-12 .3-14.3 5.8s.3 12 5.8 14.3c1.4.6 2.8.9 4.2.9 4.3 0 8.3-2.5 10.1-6.7C1044 27.1 1041.4 20.7 1035.9 18.3zM1038.7 31.4c-1.7 3.9-6.2 5.7-10.1 4.1-3.9-1.7-5.7-6.2-4.1-10.1 1.7-3.9 6.2-5.7 10.1-4.1C1038.5 22.9 1040.4 27.5 1038.7 31.4z"/><path d="M1053,32.6C1053,32.6,1053,32.6,1053,32.6l-3-1.6c-0.1-0.1-0.2-0.2-0.2-0.4c0.2-1.3,0.2-2.7,0-4
			c0-0.2,0.1-0.3,0.2-0.4l3-1.6c1.7-0.9,2.4-2.8,1.7-4.6l-0.7-1.6c-0.7-1.7-2.6-2.6-4.4-2.1l-3.3,1c-0.2,0-0.3,0-0.4-0.1
			c-0.8-1.1-1.8-2-2.8-2.9c-0.1-0.1-0.2-0.3-0.1-0.4l1-3.3c0.6-1.8-0.3-3.7-2-4.4l-1.6-0.7c-1.7-0.7-3.7,0-4.6,1.6l-1.6,3
			c-0.1,0.1-0.2,0.2-0.4,0.2c-1.3-0.2-2.7-0.2-4,0c-0.1,0-0.3-0.1-0.4-0.2l-1.6-3c-0.9-1.7-2.8-2.4-4.6-1.7l-1.6,0.7
			c-1.7,0.7-2.6,2.6-2.1,4.4l1,3.3c0,0.2,0,0.3-0.1,0.4c-1.1,0.8-2,1.8-2.9,2.8c-0.1,0.1-0.3,0.2-0.4,0.1l-3.3-1
			c-1.8-0.6-3.7,0.3-4.4,2l-0.7,1.6c-0.7,1.7,0,3.7,1.6,4.6l3,1.6c0.1,0.1,0.2,0.2,0.2,0.4c-0.2,1.3-0.2,2.7,0,4
			c0,0.2-0.1,0.3-0.2,0.4l-3,1.6c-1.7,0.9-2.4,2.8-1.7,4.6l0.7,1.6c0.7,1.7,2.6,2.6,4.4,2.1l3.3-1c0.2,0,0.3,0,0.4,0.1
			c0.8,1.1,1.8,2,2.8,2.9c0.1,0.1,0.2,0.3,0.1,0.4l-1,3.3c-0.6,1.8,0.3,3.7,2,4.4l1.6,0.7c1.7,0.7,3.7,0,4.6-1.6l1.6-3
			c0.1-0.1,0.2-0.2,0.4-0.2c1.3,0.2,2.7,0.2,4,0c0.2,0,0.3,0.1,0.4,0.2l1.6,3c0.6,1.2,1.9,1.9,3.2,1.9c0.5,0,0.9-0.1,1.4-0.3
			l1.6-0.7c1.7-0.7,2.6-2.6,2.1-4.4l-1-3.3c0-0.2,0-0.3,0.1-0.4c1.1-0.8,2-1.8,2.9-2.8c0.1-0.1,0.3-0.2,0.4-0.1l3.3,1
			c1.8,0.6,3.7-0.3,4.4-2l0.7-1.6C1055.3,35.4,1054.6,33.4,1053,32.6z M1051.6,35.9l-0.7,1.6c-0.1,0.2-0.3,0.3-0.5,0.2l-3.3-1
			c-1.4-0.4-2.9,0-3.9,1.2c-0.7,0.9-1.5,1.6-2.4,2.3c-1.2,0.9-1.7,2.4-1.2,3.9l1,3.3c0.1,0.2,0,0.4-0.2,0.5l-1.6,0.7
			c-0.2,0.1-0.4,0-0.5-0.2l-1.6-3c-0.6-1.2-1.9-1.9-3.2-1.9c-0.1,0-0.3,0-0.4,0c-1.1,0.1-2.2,0.1-3.3,0c-1.5-0.2-2.9,0.6-3.6,1.9
			l-1.6,3c-0.1,0.2-0.3,0.3-0.5,0.2l-1.6-0.7c-0.2-0.1-0.3-0.3-0.2-0.5l1-3.3c0.4-1.4,0-2.9-1.2-3.9c-0.9-0.7-1.6-1.5-2.3-2.4
			c-0.9-1.2-2.4-1.7-3.9-1.2l-3.3,1c-0.2,0.1-0.4,0-0.5-0.2l-0.7-1.6c-0.1-0.2,0-0.4,0.2-0.5l3-1.6c1.3-0.7,2.1-2.1,1.9-3.6
			c-0.1-1.1-0.1-2.2,0-3.3c0.2-1.5-0.6-2.9-1.9-3.6l-3-1.6c-0.2-0.1-0.3-0.3-0.2-0.5l0.7-1.6c0.1-0.2,0.3-0.3,0.5-0.2l3.3,1
			c1.4,0.4,2.9,0,3.9-1.2c0.7-0.9,1.5-1.6,2.4-2.3c1.2-0.9,1.7-2.4,1.2-3.9l-1-3.3c-0.1-0.2,0-0.4,0.2-0.5l1.6-0.7
			c0.2-0.1,0.4,0,0.5,0.2l1.6,3c0.7,1.3,2.1,2.1,3.6,1.9c1.1-0.1,2.2-0.1,3.3,0c1.5,0.2,2.9-0.6,3.6-1.9l1.6-3
			c0.1-0.2,0.3-0.3,0.5-0.2l1.6,0.7c0.2,0.1,0.3,0.3,0.2,0.5l-1,3.3c-0.4,1.4,0,2.9,1.2,3.9c0.9,0.7,1.6,1.5,2.3,2.4
			c0.9,1.2,2.4,1.7,3.9,1.2l3.3-1c0.2-0.1,0.4,0,0.5,0.2l0.7,1.6c0.1,0.2,0,0.4-0.2,0.5l-3,1.6c-1.3,0.7-2.1,2.1-1.9,3.6
			c0.1,1.1,0.1,2.2,0,3.3c-0.2,1.5,0.6,2.9,1.9,3.6l3,1.6C1051.6,35.5,1051.7,35.7,1051.6,35.9z"/></g><g><path d="M1174.8,86.5l-4.6-7.9v-51c0-0.9-0.7-1.6-1.6-1.6h-28.8c-0.9,0-1.6,0.7-1.6,1.6s0.7,1.6,1.6,1.6h27.2
			v48.2H1093v-7.2l46.2,0c0,0,0,0,0,0l0,0l18.5,0c0.9,0,1.6-0.7,1.6-1.6c0-0.9-0.7-1.6-1.6-1.6l-3.7,0c-0.1-5.5-4.5-9.9-10-9.9
			c-0.7,0-1.5,0.1-2.1,0.2c-0.9,0.2-1.4,1-1.2,1.9c0.2,0.9,1,1.4,1.9,1.2c0.5-0.1,1-0.2,1.5-0.2c3.7,0,6.8,3,6.8,6.7l-9.7,0
			c0-0.4,0.1-0.7,0.1-1.1c0-5.7-4.2-10.3-9.6-11.1v-8.9c0-0.9-0.7-1.6-1.6-1.6s-1.6,0.7-1.6,1.6v8.9c-5.4,0.8-9.6,5.5-9.6,11.1
			c0,0.4,0,0.7,0.1,1.1l-9.7,0c0.1-3.7,3.1-6.7,6.8-6.7c0.4,0,0.8,0,1.2,0.1c0.9,0.2,1.7-0.4,1.9-1.3c0.2-0.9-0.4-1.7-1.3-1.9
			c-0.6-0.1-1.2-0.2-1.7-0.2c-5.5,0-10,4.5-10,9.9l-14.5,0c0,0,0,0,0,0c-0.9,0-1.6,0.7-1.6,1.6v10l-4.6,7.9c-0.3,0.5-0.3,1.1,0,1.6
			c0.3,0.5,0.8,0.8,1.4,0.8h9.5c0.9,0,1.6-0.7,1.6-1.6s-0.7-1.6-1.6-1.6h-6.7l3-5.1h75.3l3,5.1h-61c-0.9,0-1.6,0.7-1.6,1.6
			s0.7,1.6,1.6,1.6h63.8c0.6,0,1.1-0.3,1.4-0.8C1175.1,87.6,1175.1,87,1174.8,86.5z M1122,65.8c0-4.4,3.6-8,8-8s8,3.6,8,8
			c0,0.4,0,0.7-0.1,1.1l-15.9,0C1122,66.6,1122,66.2,1122,65.8z"/><path d="M1103.1 85.7h-1.9c-.9 0-1.6.7-1.6 1.6s.7 1.6 1.6 1.6h1.9c.9 0 1.6-.7 1.6-1.6S1104 85.7 1103.1 85.7zM1118.2 29.2h1.3c.9 0 1.6-.7 1.6-1.6s-.7-1.6-1.6-1.6h-1.3c-.9 0-1.6.7-1.6 1.6S1117.3 29.2 1118.2 29.2zM1091.4 63c.9 0 1.6-.7 1.6-1.6V29.2h20.8c.9 0 1.6-.7 1.6-1.6s-.7-1.6-1.6-1.6h-22.4c-.9 0-1.6.7-1.6 1.6v33.9C1089.8 62.3 1090.5 63 1091.4 63zM1162.9 70.1c.9 0 1.6-.7 1.6-1.6s-.7-1.6-1.6-1.6h-.7c-.9 0-1.6.7-1.6 1.6s.7 1.6 1.6 1.6H1162.9z"/><path d="M1117.9,42.1v8.3c0,0.9,0.7,1.6,1.6,1.6h4.2c0.9,0,1.6-0.7,1.6-1.6c0-0.9-0.7-1.6-1.6-1.6h-2.5v-5.2
			c3.2-0.7,5.5-3.6,5.5-7V18.4c0-0.4,0.2-0.8,0.4-1.2l2.9-2.4l2.9,2.4c0.3,0.3,0.4,0.7,0.4,1.2v18.1c0,3.4,2.4,6.2,5.5,7v6.8
			c0,0.9,0.7,1.6,1.6,1.6s1.6-0.7,1.6-1.6v-8.3c0-0.9-0.7-1.6-1.6-1.6c-2.2,0-3.9-1.8-3.9-3.9V18.4c0-1.3-0.5-2.5-1.4-3.4
			c0,0-0.1-0.1-0.1-0.1l-4-3.4c-0.6-0.5-1.5-0.5-2.1,0l-4,3.4c0,0-0.1,0.1-0.1,0.1c-0.9,0.9-1.4,2.2-1.4,3.4v18.1
			c0,2.2-1.8,3.9-3.9,3.9C1118.7,40.5,1117.9,41.2,1117.9,42.1z"/></g></svg>