<svg xmlns="http://www.w3.org/2000/svg" enable-background="new 0 0 512 512" viewBox="0 0 512 512" fill="#7d7979"><path d="M301.6,115.2H135.8c-16.9,0-30.6,13.7-30.6,30.6v86.9c0,16.9,13.7,30.6,30.6,30.6h165.8c16.9,0,30.6-13.7,30.6-30.6v-86.9C332.2,129,318.4,115.2,301.6,115.2z M310.8,232.7c0,5.1-4.2,9.3-9.3,9.3H135.8c-5.1,0-9.3-4.2-9.3-9.3v-86.9c0-5.1,4.2-9.3,9.3-9.3h165.8c5.1,0,9.3,4.2,9.3,9.3L310.8,232.7L310.8,232.7z"/><path d="M463.1,185.8c0.8-30.3,0.2-47.9-17-65.1l-4.6-4.6c-4.2-4.2-10.9-4.2-15.1,0s-4.2,10.9,0,15.1l4.6,4.6c18.5,18.5,7.3,39.6,10.7,122.1c0.1,3.2,1.9,6.3,4.2,8l34.4,26.3v127c0,10.4-8.4,18.8-18.8,18.8s-18.8-8.4-18.8-18.8v-54.6c0-19.8-16.1-35.8-35.8-35.8h-10.7V72.1c17.5-2.5,31.1-17.6,31.1-35.9c0-20-16.3-36.3-36.3-36.3H46.4c-20,0-36.3,16.3-36.3,36.3c0,18.2,13.5,33.3,31.1,35.9v418.5H25.3c-5.9,0-10.7,4.8-10.7,10.7S19.4,512,25.3,512c-5,0,66.7,0,386.8,0c5.9,0,10.7-4.8,10.7-10.7s-4.8-10.7-10.7-10.7h-15.9V350.2h10.7c8,0,14.5,6.5,14.5,14.5v54.6c0,22.1,18,40.1,40.1,40.1s40.1-18,40.1-40.1V257.9C503.9,198.2,474.6,200.8,463.1,185.8z M31.4,36.3c0-8.2,6.7-14.9,14.9-14.9h344.6c8.2,0,14.9,6.7,14.9,14.9s-6.7,14.9-14.9,14.9H46.4C38.1,51.2,31.4,44.5,31.4,36.3z M62.5,490.6v-418h312.3c0,75.8,0,311.4,0,418.1H62.5V490.6z M480.1,265.3l-17-13v-39.6C467.5,220.1,481.8,211.4,480.1,265.3z"/></svg>