<svg xmlns="http://www.w3.org/2000/svg" data-name="Layer 1" viewBox="0 0 512 512" fill="#7d7979"><path d="M99.661 198h99.692a6 6 0 0 0 0-12H99.661a6 6 0 0 0 0 12zM293.937 252H99.661a6 6 0 0 0 0 12H293.937a6 6 0 0 0 0-12zM293.937 318H99.661a6 6 0 0 0 0 12H293.937a6 6 0 0 0 0-12z"/><path d="M388.658,18.868A108.01,108.01,0,0,0,282.611,106H21.2c-3.313,0-6.2,2.3-6.2,5.612V476.127a11.742,11.742,0,0,0,7,10.558,12.963,12.963,0,0,0,13.714-1.7L78.154,449.6a.892.892,0,0,1,1.055-.063l50.864,41.05a12.889,12.889,0,0,0,16.025-.1l50.146-40.916a.872.872,0,0,1,1.038-.056l50.286,41.029a12.828,12.828,0,0,0,7.978,2.785,13.022,13.022,0,0,0,8.044-2.8l50.718-40.941a.872.872,0,0,1,1.038-.052l42.493,35.445a12.536,12.536,0,0,0,13.464,1.7,11.46,11.46,0,0,0,6.7-10.558V234.464c4,.32,7,.49,10.46.49,59.629,0,108.24-48.414,108.24-108.043A108.1,108.1,0,0,0,388.658,18.868ZM366,475.823c0,.091-.4.169-.672-.058L322.86,440.259a12.792,12.792,0,0,0-16.07-.064L256.1,481.135a.856.856,0,0,1-1.025.054L204.793,440.16a12.869,12.869,0,0,0-16.067.057l-50.141,40.915a.878.878,0,0,1-1.04.058L86.689,440.14a12.861,12.861,0,0,0-16.123.18L27.973,475.765c-.276.228-.973.15-.973.058V118H280.914c-.257,3-.593,5.908-.593,9.008A107.919,107.919,0,0,0,366,232.645Zm22.658-252.869a96.14,96.14,0,1,1,96.141-96.14A96.248,96.248,0,0,1,388.658,222.954Z"/><path d="M388.658,83.292a20.475,20.475,0,0,1,20.452,20.452,6,6,0,1,0,12,0A32.5,32.5,0,0,0,395,71.919V64a6,6,0,0,0-12,0v7.8a32.448,32.448,0,0,0,5.658,64.4,20.452,20.452,0,1,1-20.451,20.451,6,6,0,0,0-12,0A32.511,32.511,0,0,0,379,187.631V199a6,6,0,0,0,12,0v-10a32.447,32.447,0,0,0-2.342-64.809,20.452,20.452,0,0,1,0-40.9Z"/></svg>